<svg width="58" height="72" viewBox="0 0 58 72" fill="none" xmlns="http://www.w3.org/2000/svg">
<path d="M54.881 38.421C54.107 16.895 48.98 12 29 12C9.02 12 3.893 16.896 3.119 38.421C1.668 38.788 0 40.148 0 44.464C0 49.425 2.764 51.028 5.385 51.432C6.819 60.403 12.004 66.111 23.082 71.009C24.504 71.639 26.662 72 29 72C31.34 72 33.496 71.639 34.918 71.009C45.996 66.11 51.18 60.401 52.617 51.432C55.236 51.028 58 49.425 58 44.464C58 40.146 56.332 38.787 54.881 38.421ZM51.668 49.56L50.854 49.617L50.747 50.412C49.393 60.507 43.112 65.229 34.099 69.216C32.943 69.728 31.038 70.033 29.001 70.033C26.966 70.033 25.06 69.727 23.903 69.216C14.889 65.23 8.608 60.507 7.255 50.412L7.15 49.617L6.334 49.56C3.336 49.35 2 47.778 2 44.464C2 41.678 2.709 40.267 4.111 40.267C4.179 40.267 4.252 40.27 4.326 40.276C4.517 41.294 4.744 42.036 5.015 42.532C5.701 43.782 6.992 44.463 7.136 44.536L8.861 45.41L8.584 43.52C8.582 43.499 8.293 41.489 8.398 38.755C9.187 27.496 9.898 26.755 14.478 26.755C15.683 26.755 17.169 26.851 18.892 26.961C21.546 27.131 24.851 27.343 29.001 27.343C33.151 27.343 36.456 27.131 39.11 26.96C40.833 26.85 42.319 26.754 43.522 26.754C48.104 26.754 48.815 27.497 49.6 38.748C49.704 41.498 49.416 43.499 49.412 43.519L49.133 45.41L50.86 44.535C51.006 44.462 52.296 43.781 52.981 42.531C53.254 42.034 53.481 41.293 53.674 40.275C55.221 40.159 55.996 41.541 55.998 44.463C56 47.779 54.664 49.351 51.668 49.56Z" fill="#2F383E"/>
<path d="M37.1 57.499H20.901C20.001 57.499 20.001 58.356 20.001 58.356C20.001 61.786 24.501 63.499 29.001 63.499C33.501 63.499 38.001 61.786 38.001 58.356C38 58.356 38 57.499 37.1 57.499Z" fill="#2F383E"/>
<path d="M22 41.1325C22 40.5805 21.887 40.0595 21.705 39.5705C22.734 40.3175 23.564 41.3235 24 42.6305C24 34.6325 10 34.6325 10 41.6325C10.652 40.0005 12.162 38.9125 13.963 38.3805C13.3421 39.1636 13.0028 40.133 13 41.1325C13 42.3259 13.4741 43.4705 14.318 44.3144C15.1619 45.1584 16.3065 45.6325 17.5 45.6325C18.6935 45.6325 19.8381 45.1584 20.682 44.3144C21.5259 43.4705 22 42.3259 22 41.1325Z" fill="#2F383E"/>
<path d="M34 42.6305C34.436 41.3225 35.264 40.3175 36.295 39.5705C36.1038 40.0692 36.0039 40.5983 36 41.1325C36 42.3259 36.4741 43.4705 37.318 44.3144C38.1619 45.1584 39.3065 45.6325 40.5 45.6325C41.6935 45.6325 42.8381 45.1584 43.682 44.3144C44.5259 43.4705 45 42.3259 45 41.1325C44.9962 40.1332 44.6571 39.1641 44.037 38.3805C45.838 38.9125 47.348 40.0005 48 41.6325C48 34.6325 34 34.6325 34 42.6305Z" fill="#2F383E"/>
<path d="M29 54.499C33.18 54.497 35.27 51.499 33.18 51.499H24.821C22.732 51.499 24.82 54.499 29 54.499Z" fill="#2F383E"/>
<path d="M48.9936 13.1874C48.9169 14.702 48.8498 16.2165 48.7539 17.7311C48.7444 17.9036 48.6485 17.1529 48.5143 17.2391C44.6155 19.5651 40.5404 21.2175 36.267 22.6338C33.71 23.4813 31.1256 23.9926 28.4351 23.8591C27.0943 23.7925 25.6775 23.457 24.361 23.1944C21.3082 22.5856 18.3828 22.4284 15.3857 21.1789C12.9413 20.1532 10.5832 19.9454 8.35925 18.4979C8.08126 18.3158 7.97582 18.1337 8.00458 17.7982C8.11002 16.5808 8.24422 15.3538 8.27298 14.1364C8.31132 12.5931 8.27298 11.0498 8.24422 9.50644C8.23464 8.5862 8.36884 7.71389 8.99192 6.99495C9.29866 6.64027 9.67251 6.31436 10.0655 6.05554C12.1457 4.70394 14.4558 3.8508 16.8427 3.22772C19.2296 2.60464 21.674 2.19245 24.0704 1.56937C25.4795 1.20511 26.8311 0.601201 28.2115 0.102738C28.3649 0.0452227 28.5566 -0.0218781 28.71 0.0068794C31.9404 0.706645 35.1996 1.32014 38.4108 2.14452C41.5646 2.94973 44.4787 4.36843 47.3065 5.98844C48.6964 6.78406 49.0894 8.03022 49.099 9.49685C49.1086 10.7238 49.099 11.9508 49.099 13.1874C49.0607 13.1874 49.0223 13.1874 48.9936 13.1874ZM26.3231 11.2127C26.371 11.1935 26.4094 11.1744 26.4573 11.1552C26.5148 10.1679 26.2368 9.20928 25.7959 8.37531C25.1249 7.10998 24.0896 6.16098 22.738 5.58583C20.8688 4.79021 18.9037 4.53139 16.8906 4.66559C16.0279 4.72311 15.2419 5.02027 14.5613 5.57625C14.1683 5.90217 13.8232 6.24726 13.9574 6.83199C14.082 7.38797 14.4846 7.69472 14.9831 7.78099C15.587 7.87685 16.2196 7.88643 16.8331 7.85767C18.1368 7.80016 19.4405 7.60844 20.7441 7.62761C23.0639 7.66596 24.8852 8.66288 26.0355 10.743C26.1218 10.906 26.2272 11.0498 26.3231 11.2127ZM44.1336 6.52524C44.124 6.51566 44.0473 6.46773 43.961 6.42939C42.4177 5.76796 40.8265 5.27909 39.1394 5.10654C37.5769 4.95317 36.0431 5.0011 34.5669 5.58583C33.7234 5.92134 32.9661 6.39104 32.4005 7.11957C31.8541 7.81933 31.9021 8.40407 32.5347 9.02715C33.3016 9.77484 34.2314 10.1391 35.2954 10.1966C36.6566 10.2637 37.0688 10.0337 37.481 8.72999C37.9795 7.16749 39.1106 6.45814 40.6252 6.37187C41.8042 6.31436 42.9929 6.47731 44.1336 6.52524Z" fill="#FF8412" fill-opacity="0.9"/>
<path d="M48.9936 13.1874C48.9169 14.702 48.8498 16.2165 48.7539 17.7311C48.7444 17.9036 48.6485 17.1529 48.5143 17.2391C44.6155 19.5651 40.5404 21.2175 36.267 22.6338C33.71 23.4813 31.1256 23.9926 28.4351 23.8591C27.0943 23.7925 25.6775 23.457 24.361 23.1944C21.3082 22.5856 18.3828 22.4284 15.3857 21.1789C12.9413 20.1532 10.5832 19.9454 8.35925 18.4979C8.08126 18.3158 7.97582 18.1337 8.00458 17.7982C8.11002 16.5808 8.24422 15.3538 8.27298 14.1364C8.31132 12.5931 8.27298 11.0498 8.24422 9.50644C8.23464 8.5862 8.36884 7.71389 8.99192 6.99495C9.29866 6.64027 9.67251 6.31436 10.0655 6.05554C12.1457 4.70394 14.4558 3.8508 16.8427 3.22772C19.2296 2.60464 21.674 2.19245 24.0704 1.56937C25.4795 1.20511 26.8311 0.601201 28.2115 0.102738C28.3649 0.0452227 28.5566 -0.0218781 28.71 0.0068794C31.9404 0.706645 35.1996 1.32014 38.4108 2.14452C41.5646 2.94973 44.4787 4.36843 47.3065 5.98844C48.6964 6.78406 49.0894 8.03022 49.099 9.49685C49.1086 10.7238 49.099 11.9508 49.099 13.1874C49.0607 13.1874 49.0223 13.1874 48.9936 13.1874ZM26.3231 11.2127C26.371 11.1935 26.4094 11.1744 26.4573 11.1552C26.5148 10.1679 26.2368 9.20928 25.7959 8.37531C25.1249 7.10998 24.0896 6.16098 22.738 5.58583C20.8688 4.79021 18.9037 4.53139 16.8906 4.66559C16.0279 4.72311 15.2419 5.02027 14.5613 5.57625C14.1683 5.90217 13.8232 6.24726 13.9574 6.83199C14.082 7.38797 14.4846 7.69472 14.9831 7.78099C15.587 7.87685 16.2196 7.88643 16.8331 7.85767C18.1368 7.80016 19.4405 7.60844 20.7441 7.62761C23.0639 7.66596 24.8852 8.66288 26.0355 10.743C26.1218 10.906 26.2272 11.0498 26.3231 11.2127ZM44.1336 6.52524C44.124 6.51566 44.0473 6.46773 43.961 6.42939C42.4177 5.76796 40.8265 5.27909 39.1394 5.10654C37.5769 4.95317 36.0431 5.0011 34.5669 5.58583C33.7234 5.92134 32.9661 6.39104 32.4005 7.11957C31.8541 7.81933 31.9021 8.40407 32.5347 9.02715C33.3016 9.77484 34.2314 10.1391 35.2954 10.1966C36.6566 10.2637 37.0688 10.0337 37.481 8.72999C37.9795 7.16749 39.1106 6.45814 40.6252 6.37187C41.8042 6.31436 42.9929 6.47731 44.1336 6.52524Z" fill="#FF8412" fill-opacity="0.9"/>
<path d="M26.3231 11.2126C26.2272 11.0593 26.1218 10.9059 26.0355 10.7429C24.8852 8.66281 23.0639 7.66589 20.7442 7.62754C19.4405 7.60837 18.1368 7.80009 16.8331 7.8576C16.2196 7.88636 15.587 7.87677 14.9831 7.78092C14.4846 7.69464 14.082 7.3879 13.9574 6.83192C13.8328 6.24718 14.1683 5.90209 14.5613 5.57617C15.2419 5.02978 16.0279 4.72304 16.8906 4.66552C18.9037 4.53132 20.8688 4.79014 22.738 5.58576C24.08 6.16091 25.1249 7.10991 25.7959 8.37524C26.2368 9.21879 26.5148 10.1678 26.4573 11.1551C26.4094 11.1743 26.3614 11.1935 26.3231 11.2126ZM24.2909 7.20577C23.85 6.61144 22.9585 5.95002 21.9711 5.63369C20.2936 5.0873 18.5682 4.77096 16.7948 4.94351C16.0183 5.0202 15.2898 5.24067 14.7338 5.83499C14.1203 6.49641 14.2929 7.28245 15.1556 7.49334C15.7403 7.63713 16.3826 7.57961 16.9961 7.55086C18.2518 7.49334 19.5076 7.3208 20.7633 7.33038C22.2683 7.34955 23.6966 7.7234 24.8852 8.72991C24.9619 8.78743 25.029 8.8737 25.1153 8.89287C25.2111 8.91204 25.3549 8.91204 25.4124 8.85453C25.4604 8.8066 25.47 8.64364 25.422 8.56695C25.2207 8.25062 25.0003 7.93429 24.7606 7.64671C24.7031 7.57961 24.4251 7.56044 24.3868 7.61796C24.08 8.06849 23.802 7.86719 23.3994 7.55086C23.7445 7.42624 24.0033 7.3208 24.2909 7.20577Z" fill="white"/>
<path d="M44.1336 6.52557C42.9929 6.46805 41.7946 6.31468 40.6156 6.3722C39.101 6.45847 37.9699 7.16782 37.4714 8.73031C37.0592 10.034 36.6566 10.264 35.2858 10.1969C34.2314 10.1394 33.292 9.77517 32.5251 9.02747C31.8925 8.41398 31.8445 7.81966 32.3909 7.11989C32.9565 6.39137 33.7138 5.92166 34.5573 5.58616C36.0335 5.00142 37.5673 4.95349 39.1298 5.10687C40.8169 5.26983 42.4081 5.76829 43.9514 6.42971C44.0473 6.46805 44.124 6.52557 44.1336 6.52557ZM38.8326 5.45196C38.1999 5.45196 37.4427 5.4232 36.6854 5.46154C35.7076 5.50947 34.8641 5.95042 34.0205 6.42971C33.4837 6.72687 33.0428 7.08155 32.7456 7.59918C32.4197 8.16475 32.4676 8.56735 32.9565 9.0083C33.7809 9.74641 34.7778 10.0436 35.8706 9.96688C36.4266 9.92854 36.8292 9.65055 36.9634 9.06581C37.0113 8.86451 37.0976 8.67279 37.1647 8.48108C37.644 7.08155 38.6696 6.36261 40.0979 6.16131C40.5581 6.09421 41.0278 6.06545 41.5166 6.01752C41.2674 5.67243 39.9733 5.41361 39.5228 5.58616C39.5899 5.72995 39.6666 5.87373 39.7337 6.01752C39.5515 6.04628 39.3119 6.15172 39.2065 6.07504C39.0435 5.96001 38.9764 5.71077 38.8326 5.45196Z" fill="white"/>
<path d="M24.2909 7.20631C24.0033 7.32134 23.7445 7.43637 23.409 7.57057C23.8116 7.8869 24.0896 8.0882 24.3963 7.63767C24.4347 7.58015 24.7127 7.58974 24.7702 7.66643C25.0194 7.954 25.2303 8.27033 25.4316 8.58667C25.4795 8.65377 25.47 8.82631 25.422 8.87424C25.3549 8.93176 25.2207 8.93176 25.1249 8.91258C25.0386 8.89341 24.9715 8.80714 24.8948 8.74962C23.7062 7.74311 22.2779 7.35968 20.7729 7.35009C19.5172 7.34051 18.2614 7.51305 17.0057 7.57057C16.3922 7.59932 15.7499 7.64725 15.1652 7.51305C14.3025 7.30216 14.1299 6.51613 14.7434 5.8547C15.2994 5.26038 16.0279 5.03991 16.8044 4.96322C18.5777 4.79068 20.3032 5.10701 21.9807 5.6534C22.9585 5.95056 23.85 6.61198 24.2909 7.20631ZM17.4466 6.6695C17.0824 6.77494 16.7181 6.96666 16.3538 6.96666C16.0567 6.97625 15.6924 6.82287 15.4624 6.63116C15.3665 6.54488 15.5295 6.16145 15.5678 5.91222C15.4144 6.05601 15.2227 6.25731 15.2131 6.4682C15.2035 6.64074 15.3953 6.85163 15.5486 6.97625C15.6732 7.0721 15.8841 7.11045 16.0471 7.11045C17.1207 7.06252 18.1943 6.98583 19.1433 6.92832C19.22 6.65991 19.2583 6.42985 19.3638 6.23814C19.4692 6.03683 19.6418 5.86429 19.8527 5.57672C18.7024 5.57672 17.6 5.57672 16.488 5.57672C17.6575 5.80678 17.6863 5.83553 17.4658 6.64074L17.4466 6.6695ZM20.4662 7.1392C20.8879 6.95707 21.2426 6.86122 21.5398 6.6695C21.9424 6.4011 21.8753 5.93139 21.4056 5.81636C21.0605 5.73009 20.6483 5.75885 20.2936 5.8547C19.9677 5.94098 19.5459 6.17104 19.6801 6.56406C19.7664 6.81329 20.1786 6.94749 20.4662 7.1392ZM15.3186 5.70133C14.8584 5.94098 14.6092 6.30524 14.6571 6.64074C14.7147 7.03376 14.9831 7.24465 15.3569 7.34051C15.5295 7.37885 15.702 7.42678 15.8745 7.41719C16.5551 7.38844 17.2357 7.34051 17.9163 7.29258C17.5425 7.22548 17.1686 7.28299 16.7948 7.27341C16.3059 7.26382 15.7979 7.27341 15.3473 7.12962C14.8393 6.96666 14.7242 6.43944 15.0214 6.04642C15.0885 5.94098 15.1844 5.8547 15.3186 5.70133ZM15.9992 5.39458C17.3795 5.39458 18.7503 5.39458 20.1786 5.39458C18.7599 5.14535 17.3795 5.04949 15.9992 5.39458ZM17.0536 6.34358C16.8811 6.19979 16.766 6.02725 16.6606 6.03683C16.4785 6.03683 16.2867 6.13269 16.1238 6.22855C16.0758 6.25731 16.095 6.4011 16.0758 6.49695C16.2388 6.49695 16.4114 6.51613 16.5743 6.49695C16.7085 6.47778 16.8331 6.41068 17.0536 6.34358ZM22.575 6.29565C22.5367 6.334 22.5079 6.38192 22.4696 6.42027C22.8051 6.67909 23.1502 6.92832 23.4857 7.18713C23.524 7.1392 23.5624 7.08169 23.6007 7.03376C23.2652 6.78453 22.9201 6.54488 22.575 6.29565Z" fill="#2F383E"/>
<path d="M38.8326 5.45202C38.9764 5.72042 39.0435 5.96007 39.2064 6.0751C39.3119 6.15179 39.5515 6.04634 39.7337 6.01758C39.6666 5.8738 39.5899 5.73001 39.5228 5.58622C39.9733 5.42326 41.2674 5.67249 41.5166 6.01758C41.0278 6.06551 40.558 6.09427 40.0979 6.16137C38.6696 6.36267 37.644 7.08161 37.1647 8.48114C37.0976 8.67286 37.0113 8.86458 36.9634 9.06588C36.8292 9.65061 36.4361 9.9286 35.8706 9.96695C34.7778 10.034 33.7809 9.74647 32.9565 9.00836C32.4676 8.56742 32.4197 8.16481 32.7456 7.59925C33.0428 7.07203 33.4837 6.72694 34.0205 6.42978C34.8641 5.96007 35.7076 5.50954 36.6854 5.46161C37.4427 5.41368 38.1999 5.45202 38.8326 5.45202ZM35.5255 7.3596C35.3242 7.18706 35.1325 7.0241 34.912 6.83238C34.3656 7.16788 33.8863 7.58966 33.6083 8.20315C33.4549 8.54824 33.4837 8.82623 33.9055 8.95085C34.1931 9.09464 34.471 9.22884 34.7586 9.37263C35.1804 9.65061 35.8131 9.60269 36.0239 9.22884C36.2924 8.74955 36.5032 8.25108 36.7429 7.74303C36.532 7.72386 36.3499 7.70469 36.1677 7.68552C35.9568 7.58008 35.7364 7.46505 35.5255 7.3596ZM36.0144 5.96966C35.7747 6.11344 35.4296 6.19972 35.3721 6.38185C35.3146 6.56398 35.4776 6.92824 35.6501 7.05285C35.9281 7.25416 36.3019 7.34043 36.647 7.43629C36.9442 7.52256 37.1647 7.30209 37.1934 7.06244C37.2222 6.86114 37.1359 6.55439 36.9921 6.44895C36.7333 6.22847 36.3786 6.13261 36.0144 5.96966ZM33.6563 9.26718C33.0811 8.60576 33.0332 8.45239 33.4549 7.83889C33.7042 7.47463 34.078 7.18706 34.3944 6.86114C34.4902 6.76528 34.5765 6.65984 34.6723 6.55439C34.634 6.52563 34.5957 6.49688 34.5669 6.46812C34.0205 6.88031 33.4358 7.25416 33.129 7.92517C32.851 8.5099 32.9469 8.83582 33.6563 9.26718ZM37.1742 7.86765C37.1263 7.84848 37.088 7.81972 37.04 7.80055C36.8579 8.19357 36.647 8.58659 36.5032 8.99878C36.3211 9.526 35.9568 9.73689 35.4488 9.70813C34.9791 9.67937 34.5094 9.58351 34.0397 9.51641C34.5861 9.69854 35.1421 9.81357 35.7076 9.80399C35.9664 9.80399 36.3211 9.61227 36.4553 9.3918C36.7429 8.92209 36.9346 8.38528 37.1742 7.86765ZM38.4779 5.8738C38.4779 5.81628 38.4779 5.76835 38.4683 5.71084C37.9699 5.7396 37.4714 5.76835 36.9729 5.79711C36.9729 5.82587 36.9729 5.85463 36.9729 5.8738C37.4714 5.8738 37.9795 5.8738 38.4779 5.8738Z" fill="#2F383E"/>
<path d="M20.4662 7.13863C20.1882 6.94691 19.7664 6.80312 19.6801 6.55389C19.5459 6.16087 19.9581 5.93081 20.2936 5.84454C20.6483 5.75827 21.0509 5.72951 21.4056 5.8062C21.8753 5.92123 21.9424 6.39093 21.5398 6.65934C21.2426 6.86064 20.8784 6.96608 20.4662 7.13863Z" fill="white"/>
<path d="M17.4658 6.6402C17.6958 5.83499 17.6671 5.80623 16.488 5.57617C17.6 5.57617 18.6928 5.57617 19.8527 5.57617C19.6418 5.85416 19.4692 6.02671 19.3638 6.23759C19.2679 6.42931 19.2296 6.65937 19.1433 6.92777C18.1943 6.98529 17.1207 7.05239 16.0471 7.1099C15.8841 7.11949 15.6732 7.08115 15.5486 6.9757C15.3952 6.85109 15.2035 6.63061 15.2131 6.46765C15.2227 6.25677 15.4144 6.06505 15.5678 5.91168C15.5199 6.16091 15.3569 6.54434 15.4623 6.63061C15.6924 6.83192 16.0471 6.9757 16.3538 6.96612C16.7181 6.95653 17.0824 6.7744 17.4466 6.66896C17.3891 6.73606 17.3412 6.80316 17.2837 6.87026C17.9355 6.73606 18.0026 6.18966 18.2135 5.64327C17.9642 5.6241 17.7917 5.61451 17.5521 5.59534C17.7821 5.99795 17.8396 6.35262 17.4658 6.6402ZM18.7119 5.70079C18.1176 5.81582 18.1943 6.41014 17.9738 6.80316C18.5682 6.69771 18.5202 6.12256 18.7119 5.70079ZM18.5011 6.74564C19.0954 6.68813 19.383 6.03629 19.057 5.67203C18.8653 6.04588 18.6832 6.39097 18.5011 6.74564Z" fill="white"/>
<path d="M15.3186 5.70117C15.1844 5.84496 15.0885 5.94082 15.0022 6.04626C14.7051 6.43928 14.8201 6.9665 15.3282 7.12946C15.7787 7.27325 16.2867 7.26366 16.7756 7.27325C17.1495 7.28283 17.5233 7.22532 17.8972 7.29242C17.2166 7.33076 16.536 7.37869 15.8554 7.41704C15.6828 7.42662 15.5103 7.37869 15.3377 7.34035C14.9735 7.24449 14.7051 7.0336 14.638 6.64058C14.6092 6.30508 14.8585 5.94082 15.3186 5.70117Z" fill="white"/>
<path d="M15.9991 5.39418C17.3891 5.03951 18.7599 5.14495 20.1786 5.39418C18.7503 5.39418 17.3699 5.39418 15.9991 5.39418Z" fill="white"/>
<path d="M17.4658 6.64038C17.8396 6.34322 17.7821 5.99813 17.5521 5.58594C17.7917 5.60511 17.9738 5.61469 18.2135 5.63387C18.0122 6.18026 17.9355 6.72665 17.2837 6.86085C17.3412 6.79375 17.3891 6.72665 17.4466 6.65955C17.4466 6.66914 17.4658 6.64038 17.4658 6.64038Z" fill="#2F383E"/>
<path d="M17.0536 6.34326C16.8331 6.41995 16.7085 6.47746 16.5743 6.49664C16.4113 6.51581 16.2388 6.49664 16.0758 6.49664C16.0854 6.40078 16.0663 6.25699 16.1238 6.22823C16.2867 6.13237 16.4784 6.03652 16.6606 6.03652C16.766 6.02693 16.8715 6.19947 17.0536 6.34326Z" fill="white"/>
<path d="M22.575 6.29492C22.9201 6.54415 23.2652 6.7838 23.6103 7.03303C23.572 7.08096 23.5336 7.13847 23.4953 7.1864C23.1598 6.92759 22.8147 6.67835 22.4792 6.41954C22.5079 6.38119 22.5463 6.34285 22.575 6.29492Z" fill="white"/>
<path d="M34.7586 9.37178C34.471 9.22799 34.1931 9.09379 33.9055 8.95C33.6371 8.43237 33.6371 8.43237 34.4998 8.02976C34.3368 8.001 34.2026 7.98183 34.078 7.96266C34.078 7.91473 34.0684 7.85722 34.0684 7.80929C34.2697 7.79012 34.471 7.77094 34.6723 7.74219C35.1133 7.94349 35.5447 8.15438 35.9856 8.35568C35.9664 8.52823 35.9664 8.71036 35.9089 8.87331C35.8418 9.04586 35.7364 9.27592 35.5926 9.31426C35.3338 9.40054 35.0366 9.36219 34.7586 9.37178ZM34.9599 9.19923C35.1133 9.04586 35.2571 8.96917 35.2571 8.90207C35.2187 8.51864 34.8736 8.56657 34.6244 8.50905C34.5573 8.48988 34.4615 8.6145 34.3752 8.6816C34.5477 8.83497 34.7299 8.99793 34.9599 9.19923Z" fill="#2F383E"/>
<path d="M36.0144 5.96973C36.3786 6.13269 36.7333 6.23813 36.9921 6.43943C37.1359 6.55446 37.2222 6.86121 37.1934 7.05292C37.1551 7.30216 36.9442 7.51304 36.6471 7.42677C36.302 7.33091 35.9377 7.24464 35.6501 7.04334C35.468 6.91872 35.3146 6.55446 35.3721 6.37233C35.4201 6.19979 35.7652 6.11351 36.0144 5.96973Z" fill="#2F383E"/>
<path d="M34.7586 9.37228C35.0366 9.36269 35.3338 9.40103 35.583 9.31476C35.7268 9.26683 35.8322 9.03677 35.8993 8.87381C35.9664 8.72044 35.9569 8.52872 35.976 8.35618C36.0623 8.32742 36.1486 8.30825 36.2348 8.27949C36.2348 8.24115 36.2348 8.20281 36.2348 8.16446C35.6597 7.89606 35.0845 7.62766 34.5094 7.35925C34.4902 7.40718 34.4615 7.45511 34.4423 7.50304C34.519 7.57973 34.5861 7.666 34.6628 7.74269C34.4615 7.76186 34.2602 7.78103 34.0589 7.80979C34.0589 7.85771 34.0684 7.91523 34.0684 7.96316C34.1931 7.98233 34.3273 8.01109 34.4902 8.03026C33.6275 8.43286 33.6275 8.43286 33.8959 8.9505C33.4741 8.82588 33.4454 8.54789 33.5987 8.2028C33.8767 7.57973 34.356 7.16754 34.9024 6.83203C35.1229 7.02375 35.3242 7.18671 35.5159 7.35925C35.2858 7.31132 35.0654 7.25381 34.8353 7.20588C34.8161 7.24422 34.8066 7.29215 34.7874 7.33049C35.2954 7.57973 35.8131 7.83854 36.3211 8.08777C36.3403 8.04943 36.369 8.01109 36.3882 7.96316C36.3115 7.8673 36.2348 7.78103 36.1582 7.68517C36.3403 7.70434 36.5224 7.72351 36.7333 7.74269C36.4937 8.24115 36.2732 8.7492 36.0144 9.22849C35.8131 9.60234 35.1804 9.65027 34.7586 9.37228Z" fill="white"/>
<path d="M33.6563 9.26666C32.9469 8.84488 32.8415 8.50938 33.1195 7.91505C33.4262 7.25363 34.0109 6.8702 34.5573 6.45801C34.5957 6.48677 34.634 6.51552 34.6628 6.54428C34.5669 6.64972 34.4807 6.75517 34.3848 6.85103C34.0685 7.17694 33.6946 7.46452 33.4454 7.82878C33.0332 8.45186 33.0811 8.60523 33.6563 9.26666Z" fill="white"/>
<path d="M37.1743 7.8677C36.9442 8.37575 36.7525 8.92214 36.4553 9.38226C36.3211 9.60274 35.9665 9.78487 35.7076 9.79445C35.1517 9.80404 34.5861 9.67942 34.0397 9.50688C34.5094 9.57398 34.9791 9.66984 35.4488 9.6986C35.9569 9.72735 36.3211 9.51647 36.5033 8.98924C36.647 8.57705 36.8579 8.19362 37.0401 7.79102C37.0784 7.81977 37.1263 7.84853 37.1743 7.8677Z" fill="white"/>
<path d="M36.1677 7.69511C36.2444 7.79097 36.3211 7.87724 36.3978 7.9731C36.3786 8.01144 36.3499 8.04979 36.3307 8.09772C35.8227 7.84848 35.305 7.58967 34.797 7.34044C34.8161 7.30209 34.8257 7.25416 34.8449 7.21582C35.075 7.26375 35.2954 7.32126 35.5255 7.36919C35.7364 7.46505 35.9569 7.58008 36.1677 7.69511Z" fill="#2F383E"/>
<path d="M38.4779 5.8739C37.9795 5.8739 37.481 5.8739 36.973 5.8739C36.973 5.84514 36.973 5.81638 36.973 5.79721C37.4714 5.76845 37.9699 5.73969 38.4684 5.71094C38.4684 5.76845 38.4779 5.81638 38.4779 5.8739Z" fill="white"/>
<path d="M18.712 5.70117C18.5298 6.12295 18.5682 6.6981 17.9738 6.80354C18.1943 6.42011 18.1176 5.8162 18.712 5.70117Z" fill="#2F383E"/>
<path d="M18.5011 6.74549C18.6832 6.39081 18.8653 6.04572 19.057 5.67188C19.383 6.02655 19.0954 6.68797 18.5011 6.74549Z" fill="#2F383E"/>
<path d="M34.6628 7.74281C34.5861 7.66612 34.519 7.57985 34.4423 7.50316C34.4615 7.45523 34.4902 7.4073 34.5094 7.35938C35.0845 7.62778 35.6597 7.89618 36.2348 8.16458C36.2348 8.20293 36.2348 8.24127 36.2348 8.27961C36.1486 8.30837 36.0623 8.32754 35.976 8.3563C35.5351 8.155 35.1037 7.9537 34.6628 7.74281Z" fill="#2F383E"/>
<path d="M34.9599 9.19949C34.7299 8.99819 34.5477 8.83523 34.3752 8.68186C34.4615 8.62434 34.5573 8.49973 34.6244 8.50931C34.8736 8.56683 35.2187 8.5189 35.2571 8.90233C35.2571 8.96943 35.1133 9.04612 34.9599 9.19949Z" fill="white"/>
</svg>
