<svg width="14" height="21" viewBox="0 0 14 21" fill="none" xmlns="http://www.w3.org/2000/svg">
<path d="M0.823432 10.4999C0.823432 10.7471 0.897622 10.9941 1.03356 11.1794L7.20988 20.4441C7.43222 20.7777 7.80294 21.0001 8.23519 21.0001H11.9411C12.6205 21.0001 13.1765 20.4441 13.1765 19.7646C13.1765 19.5176 13.1023 19.2706 12.9664 19.0854L7.24697 10.4999L12.9664 1.91469C13.1023 1.72944 13.1765 1.48244 13.1765 1.23522C13.1765 0.555973 12.6205 0 11.9411 0H8.23519C7.80294 0 7.43222 0.222344 7.20988 0.555973L1.03356 9.82068C0.897622 10.0059 0.823432 10.2529 0.823432 10.4999Z" fill="white"/>
</svg>
