<svg width="58" height="72" viewBox="0 0 58 72" fill="none" xmlns="http://www.w3.org/2000/svg">
<path d="M34.0977 55.7474V47.7812H23.9023V55.7474C21.8794 56.9247 20.5039 59.0919 20.5039 61.6016V63.3008C20.5039 64.2392 21.2647 65 22.2031 65H35.7969C36.7353 65 37.4961 64.2392 37.4961 63.3008V61.6016C37.4961 59.0919 36.1206 56.9247 34.0977 55.7474Z" fill="#F99C45"/>
<path d="M43.2682 18.4636L43.272 18.4654L49.7148 21.653C50.215 21.9258 50.215 22.6602 49.7148 22.9331L43.272 26.1206L43.2684 26.1224C42.9147 26.2992 42.5569 26.3907 42.1862 26.3907H8.61765C8.38182 26.3907 8.10313 26.2561 7.96316 25.9005C7.91265 25.743 7.90737 25.644 7.91102 25.5891C7.91445 25.5375 7.92691 25.5018 7.94786 25.4661C8.00019 25.3769 8.13661 25.2382 8.46463 25.0584L12.9716 23.2189L15.2398 22.2932L12.9717 21.3673L8.33433 19.4741C8.0569 19.3102 7.97356 19.1669 7.94506 19.0926C7.91481 19.0137 7.89881 18.888 7.9633 18.6849C8.10337 18.3298 8.3818 18.1953 8.61765 18.1953H42.1862C42.5571 18.1953 42.9148 18.2868 43.2682 18.4636Z" stroke="#2F383E" stroke-width="2"/>
<path d="M24.9024 34.1875V31.7891H33.0977V34.1875V35.1875H34.0977H49.3823C49.6181 35.1875 49.8965 35.3219 50.0366 35.6771C50.1011 35.8802 50.0851 36.0059 50.0548 36.0848C50.0263 36.1591 49.943 36.3024 49.6656 36.4663L45.0283 38.3593L42.76 39.2853L45.0283 40.211L49.5353 42.0504C49.8634 42.2303 49.9998 42.369 50.0522 42.4582C50.0731 42.4939 50.0856 42.5296 50.089 42.5812C50.0926 42.6361 50.0874 42.7351 50.0369 42.8926C49.8969 43.2482 49.6182 43.3828 49.3824 43.3828H15.8139C15.4432 43.3828 15.0854 43.2912 14.7314 43.1144L14.728 43.1127L8.28525 39.9252C7.7852 39.6524 7.785 38.9181 8.28538 38.6451L14.7282 35.4576L14.7282 35.4576L14.7322 35.4557C15.0854 35.279 15.4431 35.1875 15.8141 35.1875H23.9024H24.9024V34.1875Z" stroke="#2F383E" stroke-width="2"/>
<path d="M29 7C26.189 7 23.9023 9.2867 23.9023 12.0977V13.7969H34.0977V12.0977C34.0977 9.2867 31.811 7 29 7Z" fill="#F99C45"/>
</svg>
