<svg width="902" height="885" viewBox="0 0 902 885" fill="none" xmlns="http://www.w3.org/2000/svg">
<path d="M487.054 863.733C487.054 863.733 486.732 863.733 486.41 864.055C485.767 864.055 485.123 864.377 484.479 864.699C483.513 865.021 482.547 865.665 481.582 866.308C480.616 866.952 479.328 867.918 478.363 869.206C477.397 870.493 476.431 871.781 475.787 873.39C474.822 875 474.178 876.931 472.89 878.541C471.602 880.151 469.993 882.082 467.739 883.048C466.452 883.692 465.486 883.692 464.198 884.014C463.555 884.014 462.911 884.014 462.267 884.014H461.945H461.623H461.301C460.979 884.014 460.657 883.692 460.335 883.692C458.082 882.726 456.151 881.116 454.863 878.863C453.897 876.61 453.575 874.356 454.541 872.103C455.185 871.137 455.829 870.171 456.794 869.528C457.76 868.884 458.726 868.24 460.013 868.24C462.267 867.918 464.842 869.527 465.486 871.459C465.808 872.425 466.13 873.39 465.808 874.356C465.486 875.322 465.164 875.966 464.52 876.61C463.876 877.253 463.233 877.575 462.589 877.575C461.945 877.575 461.301 877.575 460.657 877.575C459.37 877.253 459.048 876.288 459.048 875.644C459.048 875 459.048 874.678 459.048 874.678C459.048 874.678 459.048 874.356 459.37 874.356C459.37 874.356 459.692 874.356 459.692 874.678C459.692 874.678 459.692 874.678 459.692 875C459.692 875 459.692 875.322 460.013 875.322C460.335 875.644 460.657 875.966 461.301 876.288C461.945 876.288 462.911 875.966 463.555 875.322C464.198 874.678 464.52 873.39 463.876 872.425C463.233 871.459 462.267 870.493 460.979 870.815C460.335 870.815 459.692 871.137 458.726 871.459C458.082 871.781 457.438 872.425 456.794 873.068C455.829 874.678 455.829 876.61 457.116 878.219C458.082 879.829 460.013 880.794 461.623 881.116C461.945 881.116 461.945 881.116 462.267 881.116H462.589H462.911C463.233 881.116 463.876 881.116 464.198 881.116C465.164 881.116 465.808 880.794 466.774 880.473C468.383 879.829 469.671 878.541 470.959 877.253C472.246 875.966 473.212 874.356 474.5 872.747C475.465 871.137 476.431 869.527 477.719 868.24C479.006 866.952 480.294 865.986 481.26 865.343C482.547 864.699 483.513 864.377 484.479 864.055C485.445 863.733 486.088 863.733 486.732 863.411C487.376 863.411 487.376 863.411 487.376 863.411C487.698 863.411 487.698 863.411 488.02 863.733C487.376 863.411 487.376 863.733 487.054 863.733Z" fill="#E3C5AA"/>
<path d="M881.719 396.96C881.719 396.96 881.719 397.282 882.041 397.604C882.041 398.248 882.363 398.892 882.685 399.536C883.007 400.501 883.651 401.467 884.295 402.433C884.938 403.399 885.904 404.686 887.192 405.652C888.479 406.618 889.767 407.583 891.377 408.227C892.986 409.193 894.918 409.837 896.527 411.124C898.137 412.412 900.068 414.022 901.034 416.275C901.678 417.563 901.678 418.528 902 419.816C902 420.46 902 421.104 902 421.748V422.069V422.391V422.713C902 423.035 901.678 423.357 901.678 423.679C900.712 425.932 899.103 427.864 896.849 429.151C894.596 430.117 892.342 430.439 890.089 429.473C889.123 429.152 888.158 428.186 887.514 427.22C886.87 426.254 886.226 425.289 886.226 424.001C885.904 421.748 887.514 419.172 889.445 418.528C890.411 418.206 891.377 417.885 892.342 418.206C893.308 418.528 893.952 418.85 894.596 419.494C895.24 420.138 895.562 420.782 895.562 421.426C895.562 422.069 895.562 422.713 895.562 423.357C895.24 424.645 894.274 424.967 893.63 424.967C892.986 424.967 892.664 424.967 892.664 424.967C892.664 424.967 892.342 424.967 892.342 424.645C892.342 424.645 892.342 424.323 892.664 424.323C892.664 424.323 892.664 424.323 892.986 424.323C892.986 424.323 893.308 424.323 893.308 424.001C893.63 423.679 893.952 423.357 894.274 422.713C894.274 422.069 893.952 421.104 893.308 420.46C892.664 419.816 891.377 419.494 890.411 420.138C889.445 420.782 888.479 421.748 888.801 423.357C888.801 424.001 889.123 424.645 889.445 425.61C889.767 426.254 890.411 426.898 891.055 427.542C892.664 428.508 894.596 428.508 896.205 427.22C897.815 426.254 898.781 424.323 899.103 422.713C899.103 422.391 899.103 422.391 899.103 422.069V421.748V421.426C899.103 421.104 899.103 420.46 899.103 420.138C899.103 419.172 898.781 418.528 898.459 417.563C897.815 415.953 896.527 414.665 895.24 413.378C893.952 412.09 892.342 411.124 890.733 409.837C889.123 408.871 887.514 407.905 886.226 406.618C884.938 405.33 883.973 404.042 883.329 403.077C882.685 401.789 882.363 400.823 882.041 399.857C881.719 398.892 881.719 398.248 881.397 397.604C881.397 396.96 881.397 396.96 881.397 396.96C881.397 396.638 881.397 396.638 881.719 396.316C881.397 396.316 881.719 396.638 881.719 396.96Z" fill="#E3C5AA"/>
<path d="M414.946 863.733C414.946 863.733 415.268 863.733 415.59 864.055C416.233 864.055 416.877 864.377 417.521 864.699C418.487 865.021 419.452 865.665 420.418 866.308C421.384 866.952 422.672 867.918 423.637 869.206C424.603 870.493 425.569 871.781 426.213 873.39C427.178 875 427.822 876.931 429.11 878.541C430.398 880.151 432.007 882.082 434.26 883.048C435.548 883.692 436.514 883.692 437.801 884.014C438.445 884.014 439.089 884.014 439.733 884.014H440.055H440.377H440.699C441.021 884.014 441.343 883.692 441.664 883.692C443.918 882.726 445.849 881.116 447.137 878.863C448.103 876.61 448.425 874.356 447.459 872.103C447.137 871.137 446.171 870.171 445.205 869.528C444.24 868.884 443.274 868.24 441.986 868.24C439.733 867.918 437.158 869.527 436.514 871.459C436.192 872.425 435.87 873.39 436.192 874.356C436.514 875.322 436.836 875.966 437.48 876.61C438.123 877.253 438.767 877.575 439.411 877.575C440.055 877.575 440.699 877.575 441.343 877.575C442.63 877.253 442.952 876.288 442.952 875.644C442.952 875 442.952 874.678 442.952 874.678C442.952 874.678 442.952 874.356 442.63 874.356C442.63 874.356 442.308 874.356 442.308 874.678C442.308 874.678 442.308 874.678 442.308 875C442.308 875 442.308 875.322 441.986 875.322C441.664 875.644 441.343 875.966 440.699 876.288C440.055 876.288 439.089 875.966 438.445 875.322C437.801 874.678 437.48 873.39 438.123 872.425C438.767 871.459 439.733 870.493 441.021 870.815C441.664 870.815 442.308 871.137 443.274 871.459C443.918 871.781 444.562 872.425 445.205 873.068C446.171 874.678 446.171 876.61 444.884 878.219C443.918 879.829 441.986 880.794 440.377 881.116C440.055 881.116 440.055 881.116 439.733 881.116H439.411H439.089C438.767 881.116 438.123 881.116 437.801 881.116C436.836 881.116 436.192 880.794 435.226 880.473C433.617 879.829 432.329 878.541 431.041 877.253C429.754 875.966 428.788 874.356 427.5 872.747C426.535 871.137 425.569 869.527 424.281 868.24C422.994 866.952 421.706 865.986 420.74 865.343C419.452 864.699 418.487 864.377 417.521 864.055C416.555 863.733 415.911 863.733 415.268 863.411C414.624 863.411 414.624 863.411 414.624 863.411C414.302 863.411 414.302 863.411 413.98 863.733C414.302 863.411 414.624 863.733 414.946 863.733Z" fill="#E3C5AA"/>
<path d="M881.719 469.068C881.719 469.068 881.719 468.746 882.041 468.424C882.041 467.78 882.363 467.136 882.685 466.493C883.007 465.527 883.651 464.561 884.295 463.595C884.938 462.63 885.904 461.342 887.192 460.376C888.479 459.411 889.767 458.445 891.377 457.801C892.986 456.835 894.918 456.191 896.527 454.904C898.137 453.616 900.068 452.007 901.034 449.753C901.678 448.466 901.678 447.5 902 446.212C902 445.568 902 444.925 902 444.281V443.959V443.637V443.315C902 442.993 901.678 442.671 901.678 442.349C900.712 440.096 899.103 438.164 896.849 436.877C894.596 435.911 892.342 435.589 890.089 436.555C889.123 436.877 888.158 437.842 887.514 438.808C886.87 439.774 886.226 440.74 886.226 442.027C885.904 444.281 887.514 446.856 889.445 447.5C890.411 447.822 891.377 448.144 892.342 447.822C893.308 447.5 893.952 447.178 894.596 446.534C895.24 445.89 895.562 445.246 895.562 444.603C895.562 443.959 895.562 443.315 895.562 442.671C895.24 441.384 894.274 441.062 893.63 441.062C892.986 441.062 892.664 441.062 892.664 441.062C892.664 441.062 892.342 441.062 892.342 441.383C892.342 441.383 892.342 441.705 892.664 441.705C892.664 441.705 892.664 441.705 892.986 441.705C892.986 441.705 893.308 441.705 893.308 442.027C893.63 442.349 893.952 442.671 894.274 443.315C894.274 443.959 893.952 444.925 893.308 445.568C892.664 446.212 891.377 446.534 890.411 445.89C889.445 445.246 888.479 444.281 888.801 442.671C888.801 442.027 889.123 441.383 889.445 440.418C889.767 439.774 890.411 439.13 891.055 438.486C892.664 437.521 894.596 437.521 896.205 438.808C897.815 439.774 898.781 441.705 899.103 443.315C899.103 443.637 899.103 443.637 899.103 443.959V444.281V444.603C899.103 444.925 899.103 445.568 899.103 445.89C899.103 446.856 898.781 447.5 898.459 448.466C897.815 450.075 896.527 451.363 895.24 452.65C893.952 453.938 892.342 454.904 890.733 456.191C889.123 457.157 887.514 458.123 886.226 459.411C884.938 460.698 883.973 461.986 883.329 462.952C882.685 464.239 882.363 465.205 882.041 466.171C881.719 467.136 881.719 467.78 881.397 468.424C881.397 469.068 881.397 469.068 881.397 469.068C881.397 469.39 881.397 469.39 881.719 469.712C881.397 469.39 881.719 469.39 881.719 469.068Z" fill="#E3C5AA"/>
<path d="M487.054 863.412C487.054 863.412 486.732 863.412 486.41 863.412C485.767 863.412 485.123 863.091 484.157 862.769C483.191 862.447 482.226 862.125 480.938 861.481C479.65 860.837 478.363 859.871 477.397 858.584C476.109 857.296 475.144 855.687 474.178 854.399C473.212 852.789 472.246 851.18 470.959 849.892C469.671 848.604 468.383 847.317 466.774 846.351C465.164 845.707 463.555 845.063 461.623 845.385C460.657 845.385 459.692 845.707 459.048 846.351C458.082 846.673 457.438 847.317 457.116 848.283C456.151 849.892 455.829 851.824 456.794 853.433C457.116 854.077 457.76 854.721 458.404 855.365L458.726 855.687C459.048 855.687 459.048 855.687 459.048 856.008C459.37 856.33 459.692 856.33 460.014 856.33C461.301 856.652 462.589 856.009 463.233 855.043C463.877 854.077 463.877 853.111 463.555 852.145C463.555 852.145 463.555 851.824 463.233 851.824V851.502C463.233 851.502 463.233 851.502 462.911 851.18C462.911 851.18 462.589 851.18 462.589 850.858C462.267 850.536 461.945 850.536 461.623 850.536C460.979 850.536 460.336 850.858 460.014 851.18C459.692 851.18 459.692 851.502 459.692 851.502H459.37C459.37 851.502 459.37 851.502 459.37 851.18C459.37 851.18 459.37 851.18 459.37 850.858C459.37 850.858 459.37 850.536 459.692 850.214C460.014 849.892 460.657 849.248 461.945 848.926C462.589 848.926 463.233 848.926 463.877 849.248C463.877 849.248 464.199 849.248 464.52 849.57L464.842 849.892H465.164L465.486 850.214C466.13 850.858 466.452 851.824 466.452 852.789C466.452 853.755 466.13 854.721 465.808 855.687C465.164 856.652 464.52 857.296 463.555 857.618C462.589 857.94 461.301 858.262 460.336 857.94C459.692 857.94 459.37 857.618 458.726 857.296C458.404 857.296 458.082 856.974 458.082 856.974L457.76 856.652H457.438C456.473 856.009 455.829 855.043 455.507 853.755C454.863 851.502 455.185 848.926 456.473 846.995C457.76 845.063 459.692 843.454 461.945 842.81C464.198 842.166 466.774 842.166 469.027 843.132C471.281 844.098 472.89 846.029 474.178 847.639C475.465 849.57 476.109 851.18 477.075 852.789C477.719 854.399 478.685 856.008 479.65 856.974C480.616 858.262 481.582 859.228 482.869 859.871C483.835 860.515 484.801 861.159 485.767 861.481C486.732 861.803 487.376 862.125 487.698 862.125C488.342 862.125 488.342 862.447 488.342 862.447C488.664 862.447 488.664 862.769 488.664 863.091C487.376 863.091 487.054 863.412 487.054 863.412Z" fill="#E3C5AA"/>
<path d="M881.398 396.96C881.398 396.96 881.398 397.282 881.398 397.604C881.398 398.247 881.076 398.891 880.754 399.857C880.432 400.823 880.11 401.788 879.466 403.076C878.822 404.364 877.856 405.651 876.569 406.617C875.281 407.905 873.672 408.871 872.384 409.836C870.774 410.802 869.165 411.768 867.877 413.055C866.59 414.343 865.302 415.631 864.336 417.24C863.692 418.85 863.049 420.459 863.37 422.391C863.37 423.357 863.692 424.322 864.336 424.966C864.658 425.932 865.302 426.576 866.268 426.898C867.877 427.863 869.809 428.185 871.418 427.22C872.062 426.898 872.706 426.254 873.35 425.61L873.672 425.288C873.672 424.966 873.672 424.966 873.994 424.644C874.315 424.322 874.316 424 874.316 423.679C874.637 422.391 873.994 421.103 873.028 420.459C872.062 419.816 871.096 419.816 870.131 420.138C870.131 420.138 869.809 420.137 869.809 420.459H869.487C869.487 420.459 869.487 420.459 869.165 420.781C869.165 420.781 869.165 421.103 868.843 421.103C868.521 421.425 868.521 421.747 868.521 422.069C868.521 422.713 868.843 423.357 869.165 423.679C869.165 424 869.487 424 869.487 424V424.322C869.487 424.322 869.487 424.322 869.165 424.322C869.165 424.322 869.165 424.322 868.843 424.322C868.843 424.322 868.521 424.322 868.199 424C867.877 423.679 867.233 423.035 866.911 421.747C866.911 421.103 866.911 420.459 867.233 419.816C867.233 419.816 867.233 419.494 867.555 419.172L867.877 418.85V418.528L868.199 418.206C868.843 417.562 869.809 417.24 870.774 417.24C871.74 417.24 872.706 417.562 873.672 417.884C874.637 418.528 875.281 419.172 875.603 420.138C875.925 421.103 876.247 422.391 875.925 423.357C875.925 424 875.603 424.322 875.281 424.966C875.281 425.288 874.959 425.61 874.959 425.61L874.637 425.932V426.254C873.994 427.22 873.028 427.863 871.74 428.185C869.487 428.829 866.912 428.507 864.98 427.22C863.049 425.932 861.439 424 860.795 421.747C860.151 419.494 860.151 416.918 861.117 414.665C862.083 412.412 864.014 410.802 865.624 409.514C867.555 408.227 869.165 407.583 870.774 406.617C872.384 405.973 873.994 405.008 874.959 404.042C876.247 403.076 877.213 402.11 877.857 400.823C878.5 399.857 879.144 398.891 879.466 397.926C879.788 396.96 880.11 396.316 880.11 395.994C880.11 395.35 880.432 395.35 880.432 395.35C880.432 395.028 880.754 395.028 881.076 395.028C881.076 396.638 881.398 396.638 881.398 396.96Z" fill="#E3C5AA"/>
<path d="M414.946 863.412C414.946 863.412 415.268 863.412 415.59 863.412C416.233 863.412 416.877 863.091 417.843 862.769C418.809 862.447 419.774 862.125 421.062 861.481C422.35 860.837 423.637 859.871 424.603 858.584C425.891 857.296 426.857 855.687 427.822 854.399C428.788 852.789 429.754 851.18 431.041 849.892C432.329 848.604 433.617 847.317 435.226 846.351C436.836 845.707 438.445 845.063 440.377 845.385C441.343 845.385 442.308 845.707 442.952 846.351C443.918 846.673 444.562 847.317 444.884 848.283C445.849 849.892 446.171 851.824 445.206 853.433C444.884 854.077 444.24 854.721 443.596 855.365L443.274 855.687C442.952 855.687 442.952 855.687 442.952 856.008C442.63 856.33 442.308 856.33 441.986 856.33C440.699 856.652 439.411 856.009 438.767 855.043C438.123 854.077 438.123 853.111 438.445 852.145C438.445 852.145 438.445 851.824 438.767 851.824V851.502C438.767 851.502 438.767 851.502 439.089 851.18C439.089 851.18 439.411 851.18 439.411 850.858C439.733 850.536 440.055 850.536 440.377 850.536C441.021 850.536 441.665 850.858 441.986 851.18C442.308 851.18 442.308 851.502 442.308 851.502H442.63C442.63 851.502 442.63 851.502 442.63 851.18C442.63 851.18 442.63 851.18 442.63 850.858C442.63 850.858 442.63 850.536 442.308 850.214C441.986 849.892 441.343 849.248 440.055 848.926C439.411 848.926 438.767 848.926 438.124 849.248C438.124 849.248 437.802 849.248 437.48 849.57L437.158 849.892H436.836L436.514 850.214C435.87 850.858 435.548 851.824 435.548 852.789C435.548 853.755 435.87 854.721 436.192 855.687C436.836 856.652 437.48 857.296 438.445 857.618C439.411 857.94 440.699 858.262 441.665 857.94C442.308 857.94 442.63 857.618 443.274 857.296C443.596 857.296 443.918 856.974 443.918 856.974L444.24 856.652H444.562C445.527 856.009 446.171 855.043 446.493 853.755C447.137 851.502 446.815 848.926 445.527 846.995C444.24 845.063 442.308 843.454 440.055 842.81C437.802 842.166 435.226 842.166 432.973 843.132C430.719 844.098 429.11 846.029 427.822 847.639C426.535 849.57 425.891 851.18 424.925 852.789C424.281 854.399 423.315 856.008 422.35 856.974C421.384 858.262 420.418 859.228 419.131 859.871C418.165 860.515 417.199 861.159 416.233 861.481C415.268 861.803 414.624 862.125 414.302 862.125C413.658 862.125 413.658 862.447 413.658 862.447C413.336 862.447 413.336 862.769 413.336 863.091C414.624 863.091 414.624 863.412 414.946 863.412Z" fill="#E3C5AA"/>
<path d="M881.398 469.069C881.398 469.069 881.398 468.747 881.398 468.425C881.398 467.781 881.076 467.137 880.754 466.172C880.432 465.206 880.11 464.24 879.466 462.953C878.822 461.665 877.856 460.377 876.569 459.412C875.281 458.124 873.672 457.158 872.384 456.192C870.774 455.227 869.165 454.261 867.877 452.973C866.59 451.686 865.302 450.398 864.336 448.788C863.692 447.179 863.049 445.569 863.37 443.638C863.37 442.672 863.692 441.706 864.336 441.063C864.658 440.097 865.302 439.453 866.268 439.131C867.877 438.165 869.809 437.843 871.418 438.809C872.062 439.131 872.706 439.775 873.35 440.419L873.672 440.741C873.672 441.063 873.672 441.063 873.994 441.384C874.315 441.706 874.316 442.028 874.316 442.35C874.637 443.638 873.994 444.925 873.028 445.569C872.062 446.213 871.096 446.213 870.131 445.891C870.131 445.891 869.809 445.891 869.809 445.569H869.487C869.487 445.569 869.487 445.569 869.165 445.247C869.165 445.247 869.165 444.925 868.843 444.925C868.521 444.604 868.521 444.282 868.521 443.96C868.521 443.316 868.843 442.672 869.165 442.35C869.165 442.028 869.487 442.028 869.487 442.028V441.706C869.487 441.706 869.487 441.706 869.165 441.706C869.165 441.706 869.165 441.706 868.843 441.706C868.843 441.706 868.521 441.706 868.199 442.028C867.877 442.35 867.233 442.994 866.911 444.282C866.911 444.925 866.911 445.569 867.233 446.213C867.233 446.213 867.233 446.535 867.555 446.857L867.877 447.179V447.501L868.199 447.823C868.843 448.467 869.809 448.788 870.774 448.788C871.74 448.788 872.706 448.467 873.672 448.145C874.637 447.501 875.281 446.857 875.603 445.891C875.925 444.925 876.247 443.638 875.925 442.672C875.925 442.028 875.603 441.706 875.281 441.063C875.281 440.741 874.959 440.419 874.959 440.419L874.637 440.097V439.775C873.994 438.809 873.028 438.165 871.74 437.843C869.487 437.2 866.912 437.521 864.98 438.809C863.049 440.097 861.439 442.028 860.795 444.282C860.151 446.535 860.151 449.11 861.117 451.364C862.083 453.617 864.014 455.227 865.624 456.514C867.555 457.802 869.165 458.446 870.774 459.412C872.384 460.055 873.994 461.021 874.959 461.987C876.247 462.953 877.213 463.918 877.857 465.206C878.5 466.172 879.144 467.137 879.466 468.103C879.788 469.069 880.11 469.713 880.11 470.035C880.11 470.679 880.432 470.679 880.432 470.679C880.432 471 880.754 471 881.076 471C881.076 469.391 881.398 469.069 881.398 469.069Z" fill="#E3C5AA"/>
<path d="M458.404 861.48L458.726 861.158H459.048C459.37 861.158 459.692 860.836 460.014 860.836C460.657 860.514 460.979 860.193 461.623 859.871C462.589 859.227 463.877 858.261 464.842 857.617C465.486 857.295 465.808 856.973 466.452 856.33C467.096 856.008 467.739 855.686 468.383 855.364C469.671 854.72 470.959 854.398 472.568 854.72C473.212 854.72 474.178 855.042 474.5 855.686C475.143 856.008 475.465 856.651 476.109 856.973C476.431 857.617 477.075 857.939 477.397 858.583C477.719 859.227 478.363 859.549 478.684 859.871C479.65 860.514 480.938 861.158 481.904 861.802C483.191 862.124 484.479 862.768 485.445 862.768C485.767 862.768 486.088 863.09 486.088 863.412C486.088 863.734 485.767 864.055 485.445 864.055C484.157 864.055 482.869 864.377 481.904 865.021C480.616 865.343 479.65 865.987 478.684 866.953C478.041 867.275 477.719 867.918 477.397 868.24C477.075 868.562 476.431 869.206 476.109 869.85C475.787 870.494 475.143 870.816 474.5 871.138C473.856 871.459 473.212 871.781 472.568 872.103C470.959 872.425 469.671 871.781 468.383 871.459C467.739 871.137 467.096 870.816 466.452 870.494C465.808 870.172 465.164 869.85 464.842 869.206C463.877 868.562 462.589 867.596 461.623 866.953C460.979 866.631 460.657 866.309 460.014 865.987C459.37 865.665 458.726 865.343 458.404 865.343C457.76 865.021 457.116 864.377 457.438 863.412C457.438 862.124 457.76 861.802 458.404 861.48ZM461.623 863.09L463.233 864.377C464.198 865.343 465.164 866.309 466.13 866.953C466.774 867.275 467.096 867.918 467.739 868.24C468.383 868.562 468.705 868.884 469.349 869.206C470.315 869.85 471.602 870.172 472.568 870.172C473.534 870.172 474.822 869.206 475.465 868.24C475.787 867.918 476.431 867.275 476.753 866.631C477.075 865.987 477.719 865.665 478.363 865.343C480.616 863.734 483.191 862.446 485.767 862.124V863.412C484.479 863.09 483.191 862.768 481.904 862.124C481.26 861.802 480.616 861.48 479.972 861.158C479.328 860.836 478.685 860.514 478.363 859.871C477.719 859.549 477.397 858.905 476.753 858.583C476.431 857.939 475.787 857.617 475.465 857.295C474.5 856.33 473.534 855.686 472.568 855.364C471.602 855.364 470.315 855.686 469.349 856.33C468.705 856.652 468.383 856.973 467.739 857.295C467.096 857.617 466.774 857.939 466.13 858.583C465.164 859.549 464.198 860.514 463.233 861.158L461.623 863.09Z" fill="#E3C5AA"/>
<path d="M879.466 425.611L879.144 425.289V424.967C879.144 424.646 878.822 424.324 878.822 424.002C878.5 423.358 878.178 423.036 877.857 422.392C877.213 421.426 876.247 420.139 875.603 419.173C875.281 418.529 874.959 418.207 874.315 417.563C873.994 416.92 873.672 416.276 873.35 415.632C872.706 414.344 872.384 413.057 872.706 411.447C872.706 410.803 873.028 409.838 873.672 409.516C873.994 408.872 874.637 408.55 874.959 407.906C875.603 407.584 875.925 406.94 876.569 406.618C877.213 406.296 877.535 405.653 877.857 405.331C878.5 404.365 879.144 403.077 879.788 402.112C880.11 400.824 880.754 399.536 880.754 398.571C880.754 398.249 881.076 397.927 881.397 397.927C881.719 397.927 882.041 398.249 882.041 398.571C882.041 399.858 882.363 401.146 883.007 402.112C883.329 403.399 883.973 404.365 884.939 405.331C885.26 405.975 885.904 406.296 886.226 406.618C886.548 406.94 887.192 407.584 887.836 407.906C888.48 408.228 888.802 408.872 889.124 409.516C889.445 410.159 889.767 410.803 890.089 411.447C890.411 413.057 889.767 414.344 889.445 415.632C889.123 416.276 888.802 416.92 888.48 417.563C888.158 418.207 887.836 418.851 887.192 419.173C886.548 420.139 885.582 421.426 884.939 422.392C884.617 423.036 884.295 423.358 883.973 424.002C883.651 424.646 883.329 425.289 883.329 425.611C883.007 426.255 882.363 426.899 881.397 426.577C880.11 426.577 879.788 426.255 879.466 425.611ZM881.076 422.392L882.685 420.783C883.651 419.817 884.617 418.851 885.261 417.885C885.582 417.242 886.226 416.92 886.548 416.276C886.87 415.632 887.192 415.31 887.514 414.666C888.158 413.7 888.48 412.413 888.48 411.125C888.48 410.159 887.514 408.872 886.548 408.228C886.226 407.906 885.582 407.262 884.939 406.94C884.295 406.618 883.973 405.975 883.651 405.331C882.041 403.077 880.754 400.502 880.432 397.927H881.719C881.398 399.214 881.076 400.502 880.432 401.79C880.11 402.434 879.788 403.077 879.466 403.721C879.144 404.365 878.822 405.009 878.178 405.331C877.856 405.975 877.213 406.297 876.891 406.94C876.247 407.262 875.925 407.906 875.281 408.228C874.315 409.194 873.672 410.159 873.35 411.125C873.35 412.091 873.672 413.379 874.315 414.666C874.637 415.31 874.959 415.632 875.281 416.276C875.603 416.92 875.925 417.242 876.569 417.885C877.535 418.851 878.5 419.817 879.144 420.783L881.076 422.392Z" fill="#E3C5AA"/>
<path d="M443.596 861.48L443.274 861.158H442.952C442.63 861.158 442.308 860.836 441.987 860.836C441.343 860.514 441.021 860.193 440.377 859.871C439.411 859.227 438.124 858.261 437.158 857.617C436.514 857.295 436.192 856.973 435.548 856.33C434.904 856.008 434.261 855.686 433.617 855.364C432.329 854.72 431.041 854.398 429.432 854.72C428.788 854.72 427.822 855.042 427.5 855.686C426.857 856.008 426.535 856.651 425.891 856.973C425.569 857.617 424.925 857.939 424.603 858.583C424.281 859.227 423.637 859.549 423.316 859.871C422.35 860.514 421.062 861.158 420.096 861.802C418.809 862.124 417.521 862.768 416.555 862.768C416.233 862.768 415.911 863.09 415.911 863.412C415.911 863.734 416.233 864.055 416.555 864.055C417.843 864.055 419.131 864.377 420.096 865.021C421.384 865.343 422.35 865.987 423.316 866.953C423.959 867.275 424.281 867.918 424.603 868.24C424.925 868.562 425.569 869.206 425.891 869.85C426.213 870.494 426.857 870.816 427.5 871.138C428.144 871.459 428.788 871.781 429.432 872.103C431.041 872.425 432.329 871.781 433.617 871.459C434.261 871.137 434.904 870.816 435.548 870.494C436.192 870.172 436.836 869.85 437.158 869.206C438.124 868.562 439.411 867.596 440.377 866.953C441.021 866.631 441.343 866.309 441.987 865.987C442.63 865.665 443.274 865.343 443.596 865.343C444.24 865.021 444.884 864.377 444.562 863.412C444.562 862.124 444.24 861.802 443.596 861.48ZM440.377 863.09L438.767 864.377C437.802 865.343 436.836 866.309 435.87 866.953C435.226 867.275 434.904 867.918 434.261 868.24C433.617 868.562 433.295 868.884 432.651 869.206C431.685 869.85 430.398 870.172 429.432 870.172C428.466 870.172 427.178 869.206 426.535 868.24C426.213 867.918 425.569 867.275 425.247 866.631C424.925 865.987 424.281 865.665 423.637 865.343C421.384 863.734 418.809 862.446 416.233 862.124V863.412C417.521 863.09 418.809 862.768 420.096 862.124C420.74 861.802 421.384 861.48 422.028 861.158C422.672 860.836 423.316 860.514 423.637 859.871C424.281 859.549 424.603 858.905 425.247 858.583C425.569 857.939 426.213 857.617 426.535 857.295C427.5 856.33 428.466 855.686 429.432 855.364C430.398 855.364 431.685 855.686 432.973 856.33C433.617 856.652 433.939 856.973 434.582 857.295C435.226 857.617 435.548 857.939 436.192 858.583C437.158 859.549 438.124 860.514 439.089 861.158L440.377 863.09Z" fill="#E3C5AA"/>
<path d="M879.466 440.419L879.144 440.74V441.062C879.144 441.384 878.822 441.706 878.822 442.028C878.5 442.672 878.178 442.994 877.857 443.638C877.213 444.603 876.247 445.891 875.603 446.857C875.281 447.501 874.959 447.823 874.315 448.466C873.994 449.11 873.672 449.754 873.35 450.398C872.706 451.686 872.384 452.973 872.706 454.583C872.706 455.227 873.028 456.192 873.672 456.514C873.994 457.158 874.637 457.48 874.959 458.124C875.603 458.446 875.925 459.09 876.569 459.411C877.213 459.733 877.535 460.377 877.857 460.699C878.5 461.665 879.144 462.952 879.788 463.918C880.11 465.206 880.754 466.494 880.754 467.459C880.754 467.781 881.076 468.103 881.397 468.103C881.719 468.103 882.041 467.781 882.041 467.459C882.041 466.172 882.363 464.884 883.007 463.918C883.329 462.631 883.973 461.665 884.939 460.699C885.26 460.055 885.904 459.733 886.226 459.411C886.548 459.09 887.192 458.446 887.836 458.124C888.48 457.802 888.802 457.158 889.124 456.514C889.445 455.87 889.767 455.227 890.089 454.583C890.411 452.973 889.767 451.686 889.445 450.398C889.123 449.754 888.802 449.11 888.48 448.466C888.158 447.823 887.836 447.179 887.192 446.857C886.548 445.891 885.582 444.603 884.939 443.638C884.617 442.994 884.295 442.672 883.973 442.028C883.651 441.384 883.329 440.74 883.329 440.419C883.007 439.775 882.363 439.131 881.397 439.453C880.11 439.453 879.788 439.775 879.466 440.419ZM881.076 443.638L882.685 445.247C883.651 446.213 884.617 447.179 885.261 448.144C885.582 448.788 886.226 449.11 886.548 449.754C886.87 450.398 887.192 450.72 887.514 451.364C888.158 452.329 888.48 453.617 888.48 454.905C888.48 455.87 887.514 457.158 886.548 457.802C886.226 458.124 885.582 458.768 884.939 459.09C884.295 459.411 883.973 460.055 883.651 460.699C882.041 462.952 880.754 465.528 880.432 468.103H881.719C881.398 466.815 881.076 465.528 880.432 464.24C880.11 463.596 879.788 462.952 879.466 462.309C879.144 461.665 878.822 461.021 878.178 460.699C877.856 460.055 877.213 459.733 876.891 459.09C876.247 458.768 875.925 458.124 875.281 457.802C874.315 456.836 873.672 455.87 873.35 454.905C873.35 453.939 873.672 452.651 874.315 451.364C874.637 450.72 874.959 450.398 875.281 449.754C875.603 449.11 875.925 448.788 876.569 448.144C877.535 447.179 878.5 446.213 879.144 445.247L881.076 443.638Z" fill="#E3C5AA"/>
<path d="M464.198 862.446C464.842 861.802 465.486 861.158 466.13 860.514C466.774 859.871 467.417 859.227 468.383 858.583C469.349 857.939 470.315 857.617 471.28 857.617C471.924 857.617 472.246 857.617 472.89 857.617C473.534 857.617 473.856 857.939 474.5 857.939C474.821 858.261 475.465 858.261 475.787 858.583C476.109 858.905 476.753 859.227 476.753 859.549C477.075 859.871 477.397 860.192 477.719 860.514C478.041 860.836 478.363 861.158 479.006 861.158C480.616 862.124 482.547 862.446 484.157 862.768C484.157 862.768 484.479 862.768 484.479 863.09C484.479 863.09 484.479 863.412 484.157 863.412C482.225 863.734 480.616 864.055 479.006 865.021C478.363 865.343 477.397 865.987 476.753 866.631L476.431 866.953L476.109 867.275C475.787 867.275 475.787 867.597 475.465 867.597C475.143 867.918 474.5 868.24 474.178 868.24C473.212 868.562 472.246 868.884 470.959 868.884C469.993 868.884 469.027 868.24 468.061 867.918C467.096 867.275 466.452 866.631 465.808 865.987C465.486 865.665 465.164 865.343 464.842 865.021L464.52 864.377L464.198 864.055C463.876 863.734 463.876 863.09 464.198 862.446C463.876 862.768 463.876 862.768 464.198 862.446ZM465.808 863.09L466.13 863.734C466.452 864.055 466.774 864.377 467.096 864.699C467.739 865.343 468.383 865.987 469.027 866.309C469.671 866.631 470.637 867.275 471.28 867.275C471.924 867.275 472.89 867.275 473.534 866.953C473.856 866.631 474.178 866.631 474.5 866.309C474.821 866.309 474.822 865.987 475.143 865.987L475.787 865.665C476.431 865.021 477.397 864.699 478.363 864.055C479.972 863.412 481.904 862.768 483.835 862.768V863.09C481.904 863.09 479.972 862.768 478.363 861.802C478.041 861.48 477.397 861.48 477.075 861.158C476.753 860.836 476.109 860.514 475.787 860.192C475.465 859.871 475.143 859.549 474.822 859.227C474.5 858.905 474.178 858.905 473.856 858.583C473.534 858.583 473.212 858.261 472.568 858.261C472.246 858.261 471.602 858.261 471.28 858.261C470.315 858.261 469.671 858.905 469.027 859.227C468.383 859.871 467.739 860.192 467.096 860.836C466.774 861.158 466.452 861.48 466.13 861.802C466.13 862.768 466.13 862.768 465.808 863.09Z" fill="#E3C5AA"/>
<path d="M880.432 419.817C879.788 419.173 879.144 418.529 878.5 417.885C877.856 417.241 877.213 416.598 876.569 415.632C875.925 414.666 875.603 413.7 875.603 412.735C875.603 412.091 875.603 411.769 875.603 411.125C875.603 410.481 875.925 410.159 875.925 409.515C876.247 409.194 876.247 408.55 876.569 408.228C876.891 407.906 877.213 407.262 877.535 407.262C877.856 406.94 878.178 406.618 878.5 406.296C878.822 405.974 879.144 405.652 879.144 405.009C880.11 403.399 880.432 401.468 880.754 399.858C880.754 399.858 880.754 399.536 881.076 399.536C881.076 399.536 881.397 399.536 881.397 399.858C881.719 401.79 882.041 403.399 883.007 405.009C883.329 405.652 883.973 406.618 884.617 407.262L884.938 407.584L885.26 407.906C885.26 408.228 885.582 408.228 885.582 408.55C885.904 408.872 886.226 409.515 886.226 409.837C886.548 410.803 886.87 411.769 886.87 413.056C886.87 414.022 886.226 414.988 885.904 415.954C885.26 416.919 884.617 417.563 883.973 418.207C883.651 418.529 883.329 418.851 883.007 419.173L882.363 419.495L882.041 419.817C881.719 420.139 881.076 420.139 880.432 419.817C880.754 419.817 880.754 420.139 880.432 419.817ZM881.076 418.207L881.719 417.885C882.041 417.563 882.363 417.241 882.685 416.919C883.329 416.276 883.973 415.632 884.295 414.988C884.617 414.344 885.26 413.378 885.26 412.735C885.26 412.091 885.26 411.125 884.938 410.481C884.938 410.159 884.617 409.837 884.295 409.515C884.295 409.194 883.973 409.194 883.973 408.872L883.651 408.228C883.007 407.584 882.685 406.618 882.041 405.653C881.397 404.043 880.754 402.111 880.754 400.18H881.076C881.076 402.111 880.754 404.043 879.788 405.653C879.466 405.974 879.466 406.618 879.144 406.94C878.822 407.262 878.5 407.906 878.178 408.228C877.856 408.55 877.535 408.872 877.213 409.194C876.891 409.515 876.891 409.837 876.569 410.159C876.569 410.481 876.247 410.803 876.247 411.447C876.247 411.769 876.247 412.413 876.247 412.735C876.247 413.378 876.891 414.344 877.213 414.988C877.856 415.632 878.178 416.276 878.822 416.919C879.144 417.241 879.466 417.563 879.788 417.885C880.754 417.885 880.754 417.885 881.076 418.207Z" fill="#E3C5AA"/>
<path d="M437.802 862.446C437.158 861.802 436.514 861.158 435.87 860.514C435.226 859.871 434.582 859.227 433.617 858.583C432.651 857.939 431.685 857.617 430.72 857.617C430.076 857.617 429.754 857.617 429.11 857.617C428.466 857.617 428.144 857.939 427.5 857.939C427.179 858.261 426.535 858.261 426.213 858.583C425.891 858.905 425.247 859.227 425.247 859.549C424.925 859.871 424.603 860.192 424.281 860.514C423.959 860.836 423.637 861.158 422.994 861.158C421.384 862.124 419.453 862.446 417.843 862.768C417.843 862.768 417.521 862.768 417.521 863.09C417.521 863.09 417.521 863.412 417.843 863.412C419.775 863.734 421.384 864.055 422.994 865.021C423.637 865.343 424.603 865.987 425.247 866.631L425.569 866.953L425.891 867.275C426.213 867.275 426.213 867.597 426.535 867.597C426.857 867.918 427.5 868.24 427.822 868.24C428.788 868.562 429.754 868.884 431.041 868.884C432.007 868.884 432.973 868.24 433.939 867.918C434.904 867.275 435.548 866.631 436.192 865.987C436.514 865.665 436.836 865.343 437.158 865.021L437.48 864.377L437.802 864.055C438.124 863.734 438.124 863.09 437.802 862.446C437.802 862.768 438.124 862.768 437.802 862.446ZM436.192 863.09L435.87 863.734C435.548 864.055 435.226 864.377 434.904 864.699C434.261 865.343 433.617 865.987 432.973 866.309C432.329 866.631 431.363 867.275 430.72 867.275C430.076 867.275 429.11 867.275 428.466 866.953C428.144 866.631 427.822 866.631 427.5 866.309C427.179 866.309 427.179 865.987 426.857 865.987L426.213 865.665C425.569 865.021 424.603 864.699 423.637 864.055C422.028 863.412 420.096 862.768 418.165 862.768V863.09C420.096 863.09 422.028 862.768 423.637 861.802C423.959 861.48 424.603 861.48 424.925 861.158C425.247 860.836 425.891 860.514 426.213 860.192C426.535 859.871 426.857 859.549 427.178 859.227C427.5 858.905 427.822 858.905 428.144 858.583C428.466 858.583 428.788 858.261 429.432 858.261C429.754 858.261 430.398 858.261 430.72 858.261C431.685 858.261 432.329 858.905 432.973 859.227C433.617 859.871 434.261 860.192 434.904 860.836C435.226 861.158 435.548 861.48 435.87 861.802C435.87 862.768 435.87 862.768 436.192 863.09Z" fill="#E3C5AA"/>
<path d="M880.432 446.213C879.788 446.857 879.144 447.501 878.5 448.145C877.856 448.788 877.213 449.432 876.569 450.398C875.925 451.364 875.603 452.329 875.603 453.295C875.603 453.939 875.603 454.261 875.603 454.905C875.603 455.549 875.925 455.87 875.925 456.514C876.247 456.836 876.247 457.48 876.569 457.802C876.891 458.124 877.213 458.768 877.535 458.768C877.856 459.09 878.178 459.412 878.5 459.733C878.822 460.055 879.144 460.377 879.144 461.021C880.11 462.631 880.432 464.562 880.754 466.172C880.754 466.172 880.754 466.494 881.076 466.494C881.076 466.494 881.397 466.494 881.397 466.172C881.719 464.24 882.041 462.631 883.007 461.021C883.329 460.377 883.973 459.412 884.617 458.768L884.938 458.446L885.26 458.124C885.26 457.802 885.582 457.802 885.582 457.48C885.904 457.158 886.226 456.514 886.226 456.192C886.548 455.227 886.87 454.261 886.87 452.973C886.87 452.008 886.226 451.042 885.904 450.076C885.26 449.11 884.617 448.467 883.973 447.823C883.651 447.501 883.329 447.179 883.007 446.857L882.363 446.535L882.041 446.213C881.719 445.891 881.076 445.891 880.432 446.213C880.754 445.891 880.754 445.891 880.432 446.213ZM881.076 447.823L881.719 448.145C882.041 448.467 882.363 448.788 882.685 449.11C883.329 449.754 883.973 450.398 884.295 451.042C884.617 451.686 885.26 452.651 885.26 453.295C885.26 453.939 885.26 454.905 884.938 455.549C884.938 455.871 884.617 456.192 884.295 456.514C884.295 456.836 883.973 456.836 883.973 457.158L883.651 457.802C883.007 458.446 882.685 459.412 882.041 460.377C881.397 461.987 880.754 463.918 880.754 465.85H881.076C881.076 463.918 880.754 461.987 879.788 460.377C879.466 460.055 879.466 459.412 879.144 459.09C878.822 458.768 878.5 458.124 878.178 457.802C877.856 457.48 877.535 457.158 877.213 456.836C876.891 456.514 876.891 456.192 876.569 455.871C876.569 455.549 876.247 455.227 876.247 454.583C876.247 454.261 876.247 453.617 876.247 453.295C876.247 452.651 876.891 451.686 877.213 451.042C877.856 450.398 878.178 449.754 878.822 449.11C879.144 448.788 879.466 448.467 879.788 448.145C880.754 448.145 880.754 448.145 881.076 447.823Z" fill="#E3C5AA"/>
<path d="M40.2391 433.014C39.2734 434.624 37.9857 435.912 36.3762 436.555C34.1228 437.521 31.8694 437.843 29.616 436.877C28.6503 436.555 27.6845 435.59 27.0407 434.624C26.7188 433.98 26.3969 433.658 26.075 433.014C26.3969 432.371 26.7188 431.727 27.0407 431.405C27.6845 430.439 28.6503 429.795 29.616 429.151C31.8694 428.186 34.4447 428.508 36.3762 429.473C37.9857 430.117 39.2734 431.405 40.2391 433.014ZM28.3283 433.014C28.3283 433.336 28.6503 433.336 28.6503 433.658C28.9722 434.302 29.616 434.946 30.2598 435.59C31.8694 436.555 33.8009 436.555 35.4104 435.268C36.3762 434.624 37.02 433.98 37.3419 433.014C36.6981 432.049 36.0543 431.405 35.4104 430.761C33.8009 429.795 31.5475 429.795 30.2598 430.439C29.616 430.761 28.9722 431.405 28.6503 432.371C28.6503 432.692 28.3283 432.693 28.3283 433.014Z" fill="#E3C5AA"/>
<path d="M3.86294 433.013C4.18485 433.656 4.82867 434.622 5.79441 434.944C7.40398 435.91 9.33546 436.232 10.945 435.266C11.5888 434.944 12.2327 434.3 12.8765 433.656L13.1984 433.335V433.013V432.691L12.8765 432.369C12.5546 431.725 11.9108 431.081 10.945 430.759C9.33546 430.115 7.40398 430.115 5.79441 431.081C4.82867 431.403 4.18485 432.047 3.86294 433.013ZM15.7737 433.013C15.7737 433.335 15.4518 433.656 15.4518 433.978C15.4518 434.3 15.1299 434.622 15.1299 434.622L14.808 434.944V435.266C14.1641 436.232 13.1984 436.876 11.9108 437.197C9.65737 437.841 7.08206 437.519 5.15059 436.232C3.86294 435.266 2.57528 434.3 1.93146 433.013C2.8972 431.725 3.86294 430.437 5.15059 429.794C7.08206 428.506 9.65737 428.184 11.9108 428.828C12.8765 429.15 14.1641 429.793 14.808 430.759V431.081L15.1299 431.403C15.1299 431.725 15.4518 432.047 15.4518 432.047C15.4518 432.369 15.7737 432.691 15.7737 433.013Z" fill="#E3C5AA"/>
<path d="M20.2805 469.067C20.2805 469.067 20.2805 468.745 19.9586 468.423C19.9586 467.779 19.6367 467.136 19.3148 466.492C18.9929 465.526 18.349 464.56 17.7052 463.594C17.0614 462.629 16.0956 461.341 14.808 460.375C13.5203 459.41 12.2327 458.444 10.6231 457.8C9.01356 456.834 7.08208 456.19 5.47252 454.903C3.86295 453.615 1.93148 452.006 0.965739 449.752C0.321913 448.465 0.321913 447.499 0 446.211C0 445.567 0 444.924 0 444.28V443.958V443.636V443.314C0 442.992 0.321913 442.67 0.321913 442.348C1.28765 440.095 2.89722 438.163 5.15061 436.876C7.404 435.91 9.65739 435.588 11.9108 436.554C12.8765 436.876 13.8423 437.841 14.4861 438.807C15.1299 439.773 15.7737 440.739 15.7737 442.026C16.0956 444.28 14.4861 446.855 12.5546 447.499C11.5889 447.821 10.6231 448.143 9.65739 447.821C8.69165 447.499 8.04782 447.177 7.404 446.533C6.76017 445.889 6.43826 445.245 6.43826 444.602C6.43826 443.958 6.43826 443.314 6.43826 442.67C6.76017 441.383 7.72591 441.061 8.36973 441.061C9.01356 441.061 9.33547 441.061 9.33547 441.061C9.33547 441.061 9.65739 441.061 9.65739 441.382C9.65739 441.382 9.65739 441.704 9.33547 441.704C9.33547 441.704 9.33547 441.704 9.01356 441.704C9.01356 441.704 8.69165 441.704 8.69165 442.026C8.36974 442.348 8.04782 442.67 7.72591 443.314C7.72591 443.958 8.04782 444.924 8.69165 445.567C9.33547 446.211 10.6231 446.533 11.5889 445.889C12.5546 445.245 13.5203 444.28 13.1984 442.67C13.1984 442.026 12.8765 441.382 12.5546 440.417C12.2327 439.773 11.5889 439.129 10.945 438.485C9.33547 437.52 7.404 437.52 5.79443 438.807C4.18487 439.773 3.21913 441.704 2.89722 443.314C2.89722 443.636 2.89722 443.636 2.89722 443.958V444.28V444.602C2.89722 444.924 2.89722 445.567 2.89722 445.889C2.89722 446.855 3.21913 447.499 3.54104 448.465C4.18487 450.074 5.47252 451.362 6.76017 452.649C8.04782 453.937 9.65739 454.903 11.267 456.19C12.8765 457.156 14.4861 458.122 15.7737 459.41C17.0614 460.697 18.0271 461.985 18.6709 462.951C19.3148 464.238 19.6367 465.204 19.9586 466.17C20.2805 467.135 20.2805 467.779 20.6024 468.423C20.6024 469.067 20.6024 469.067 20.6024 469.067C20.6024 469.389 20.6024 469.389 20.2805 469.711C20.2805 469.389 20.2805 469.389 20.2805 469.067Z" fill="#E3C5AA"/>
<path d="M20.2805 396.959C20.2805 396.959 20.2805 397.281 19.9586 397.603C19.9586 398.247 19.6367 398.891 19.3148 399.535C18.9929 400.5 18.349 401.466 17.7052 402.432C17.0614 403.398 16.0956 404.685 14.808 405.651C13.5203 406.617 12.2327 407.582 10.6231 408.226C9.01356 409.192 7.08208 409.836 5.47252 411.123C3.86295 412.411 1.93148 414.021 0.965739 416.274C0.321913 417.562 0.321913 418.527 0 419.815C0 420.459 0 421.103 0 421.747V422.068V422.39V422.712C0 423.034 0.321913 423.356 0.321913 423.678C1.28765 425.931 2.89722 427.863 5.15061 429.151C7.404 430.116 9.65739 430.438 11.9108 429.472C12.8765 429.151 13.8423 428.185 14.4861 427.219C15.1299 426.253 15.7737 425.288 15.7737 424C16.0956 421.747 14.4861 419.171 12.5546 418.527C11.5889 418.206 10.6231 417.884 9.65739 418.205C8.69165 418.527 8.04782 418.849 7.404 419.493C6.76017 420.137 6.43826 420.781 6.43826 421.425C6.43826 422.068 6.43826 422.712 6.43826 423.356C6.76017 424.644 7.72591 424.966 8.36973 424.966C9.01356 424.966 9.33547 424.966 9.33547 424.966C9.33547 424.966 9.65739 424.966 9.65739 424.644C9.65739 424.644 9.65739 424.322 9.33547 424.322C9.33547 424.322 9.33547 424.322 9.01356 424.322C9.01356 424.322 8.69165 424.322 8.69165 424C8.36974 423.678 8.04782 423.356 7.72591 422.712C7.72591 422.068 8.04782 421.103 8.69165 420.459C9.33547 419.815 10.6231 419.493 11.5889 420.137C12.5546 420.781 13.5203 421.747 13.1984 423.356C13.1984 424 12.8765 424.644 12.5546 425.61C12.2327 426.253 11.5889 426.897 10.945 427.541C9.33547 428.507 7.404 428.507 5.79443 427.219C4.18487 426.253 3.21913 424.322 2.89722 422.712C2.89722 422.39 2.89722 422.39 2.89722 422.068V421.747V421.425C2.89722 421.103 2.89722 420.459 2.89722 420.137C2.89722 419.171 3.21913 418.527 3.54104 417.562C4.18487 415.952 5.47252 414.664 6.76017 413.377C8.04782 412.089 9.65739 411.123 11.267 409.836C12.8765 408.87 14.4861 407.904 15.7737 406.617C17.0614 405.329 18.0271 404.041 18.6709 403.076C19.3148 401.788 19.6367 400.822 19.9586 399.856C20.2805 398.891 20.2805 398.247 20.6024 397.603C20.6024 396.959 20.6024 396.959 20.6024 396.959C20.6024 396.637 20.6024 396.637 20.2805 396.315C20.2805 396.315 20.2805 396.637 20.2805 396.959Z" fill="#E3C5AA"/>
<path d="M20.6025 469.069C20.6025 469.069 20.6025 468.747 20.6025 468.425C20.6025 467.781 20.9244 467.137 21.2463 466.172C21.5682 465.206 21.8901 464.24 22.534 462.953C23.1778 461.665 24.1435 460.377 25.4312 459.412C26.7188 458.124 28.3284 457.158 29.616 456.192C31.2256 455.227 32.8352 454.261 34.1228 452.973C35.4105 451.686 36.6981 450.398 37.6639 448.788C38.3077 447.179 38.9515 445.569 38.6296 443.638C38.6296 442.672 38.3077 441.706 37.6639 441.063C37.342 440.097 36.6981 439.453 35.7324 439.131C34.1228 438.165 32.1913 437.843 30.5818 438.809C29.938 439.131 29.2941 439.775 28.6503 440.419L28.3284 440.741C28.3284 441.063 28.3284 441.063 28.0065 441.384C27.6846 441.706 27.6846 442.028 27.6846 442.35C27.3627 443.638 28.0065 444.925 28.9722 445.569C29.938 446.213 30.9037 446.213 31.8694 445.891C31.8694 445.891 32.1913 445.891 32.1913 445.569H32.5133C32.5133 445.569 32.5133 445.569 32.8352 445.247C32.8352 445.247 32.8352 444.925 33.1571 444.925C33.479 444.604 33.479 444.282 33.479 443.96C33.479 443.316 33.1571 442.672 32.8352 442.35C32.8352 442.028 32.5133 442.028 32.5133 442.028V441.706C32.5133 441.706 32.5133 441.706 32.8352 441.706C32.8352 441.706 32.8352 441.706 33.1571 441.706C33.1571 441.706 33.479 441.706 33.8009 442.028C34.1228 442.35 34.7666 442.994 35.0886 444.282C35.0886 444.925 35.0886 445.569 34.7666 446.213C34.7666 446.213 34.7666 446.535 34.4447 446.857L34.1228 447.179V447.501L33.8009 447.823C33.1571 448.467 32.1913 448.788 31.2256 448.788C30.2599 448.788 29.2941 448.467 28.3284 448.145C27.3627 447.501 26.7188 446.857 26.3969 445.891C26.075 444.925 25.7531 443.638 26.075 442.672C26.075 442.028 26.3969 441.706 26.7188 441.063C26.7188 440.741 27.0407 440.419 27.0407 440.419L27.3626 440.097V439.775C28.0065 438.809 28.9722 438.165 30.2599 437.843C32.5133 437.2 35.0886 437.521 37.02 438.809C38.9515 440.097 40.5611 442.028 41.2049 444.282C41.8487 446.535 41.8487 449.11 40.883 451.364C39.9173 453.617 37.9858 455.227 36.3762 456.514C34.4447 457.802 32.8352 458.446 31.2256 459.412C29.616 460.055 28.0065 461.021 27.0407 461.987C25.7531 462.953 24.7873 463.918 24.1435 465.206C23.4997 466.172 22.8559 467.137 22.534 468.103C22.212 469.069 21.8901 469.713 21.8901 470.035C21.8901 470.679 21.5682 470.679 21.5682 470.679C21.5682 471 21.2463 471 20.9244 471C20.9244 469.391 20.6025 469.069 20.6025 469.069Z" fill="#E3C5AA"/>
<path d="M20.6025 396.96C20.6025 396.96 20.6025 397.282 20.6025 397.604C20.6025 398.247 20.9244 398.891 21.2463 399.857C21.5682 400.823 21.8901 401.788 22.534 403.076C23.1778 404.364 24.1435 405.651 25.4312 406.617C26.7188 407.905 28.3284 408.871 29.616 409.836C31.2256 410.802 32.8352 411.768 34.1228 413.055C35.4105 414.343 36.6981 415.631 37.6639 417.24C38.3077 418.85 38.9515 420.459 38.6296 422.391C38.6296 423.357 38.3077 424.322 37.6639 424.966C37.342 425.932 36.6981 426.576 35.7324 426.898C34.1228 427.863 32.1913 428.185 30.5818 427.22C29.938 426.898 29.2941 426.254 28.6503 425.61L28.3284 425.288C28.3284 424.966 28.3284 424.966 28.0065 424.644C27.6846 424.322 27.6846 424 27.6846 423.679C27.3627 422.391 28.0065 421.103 28.9722 420.459C29.938 419.816 30.9037 419.816 31.8694 420.138C31.8694 420.138 32.1913 420.137 32.1913 420.459H32.5133C32.5133 420.459 32.5133 420.459 32.8352 420.781C32.8352 420.781 32.8352 421.103 33.1571 421.103C33.479 421.425 33.479 421.747 33.479 422.069C33.479 422.713 33.1571 423.357 32.8352 423.679C32.8352 424 32.5133 424 32.5133 424V424.322C32.5133 424.322 32.5133 424.322 32.8352 424.322C32.8352 424.322 32.8352 424.322 33.1571 424.322C33.1571 424.322 33.479 424.322 33.8009 424C34.1228 423.679 34.7666 423.035 35.0886 421.747C35.0886 421.103 35.0886 420.459 34.7666 419.816C34.7666 419.816 34.7666 419.494 34.4447 419.172L34.1228 418.85V418.528L33.8009 418.206C33.1571 417.562 32.1913 417.24 31.2256 417.24C30.2599 417.24 29.2941 417.562 28.3284 417.884C27.3627 418.528 26.7188 419.172 26.3969 420.138C26.075 421.103 25.7531 422.391 26.075 423.357C26.075 424 26.3969 424.322 26.7188 424.966C26.7188 425.288 27.0407 425.61 27.0407 425.61L27.3626 425.932V426.254C28.0065 427.22 28.9722 427.863 30.2599 428.185C32.5133 428.829 35.0886 428.507 37.02 427.22C38.9515 425.932 40.5611 424 41.2049 421.747C41.8487 419.494 41.8487 416.918 40.883 414.665C39.9173 412.412 37.9858 410.802 36.3762 409.514C34.4447 408.227 32.8352 407.583 31.2256 406.617C29.616 405.973 28.0065 405.008 27.0407 404.042C25.7531 403.076 24.7873 402.11 24.1435 400.823C23.4997 399.857 22.8559 398.891 22.534 397.926C22.212 396.96 21.8901 396.316 21.8901 395.994C21.8901 395.35 21.5682 395.35 21.5682 395.35C21.5682 395.028 21.2463 395.028 20.9244 395.028C20.9244 396.638 20.6025 396.638 20.6025 396.96Z" fill="#E3C5AA"/>
<path d="M22.212 440.419L22.5339 440.74V441.062C22.5339 441.384 22.8558 441.706 22.8558 442.028C23.1778 442.672 23.4997 442.994 23.8216 443.638C24.4654 444.603 25.4312 445.891 26.075 446.857C26.3969 447.501 26.7188 447.823 27.3626 448.466C27.6845 449.11 28.0065 449.754 28.3284 450.398C28.9722 451.686 29.2941 452.973 28.9722 454.583C28.9722 455.227 28.6503 456.192 28.0065 456.514C27.3626 456.836 27.0407 457.48 26.7188 458.124C26.075 458.446 25.7531 459.09 25.1092 459.411C24.4654 459.733 24.1435 460.377 23.8216 460.699C23.1778 461.665 22.5339 462.952 21.8901 463.918C21.5682 465.206 20.9244 466.494 20.9244 467.459C20.9244 467.781 20.6025 468.103 20.2805 468.103C19.9586 468.103 19.6367 467.781 19.6367 467.459C19.6367 466.172 19.3148 464.884 18.671 463.918C18.3491 462.631 17.7052 461.665 16.7395 460.699C16.4176 460.055 15.7738 459.733 15.4519 459.411C15.1299 459.09 14.4861 458.446 13.8423 458.124C13.1985 457.802 12.8765 457.158 12.5546 456.514C12.2327 455.87 11.9108 455.227 11.5889 454.583C11.267 452.973 11.9108 451.686 12.2327 450.398C12.5546 449.754 12.8765 449.11 13.1985 448.466C13.5204 447.823 13.8423 447.179 14.4861 446.857C15.1299 445.891 16.0957 444.603 16.7395 443.638C17.0614 442.994 17.3833 442.672 17.7052 442.028C18.0272 441.384 18.3491 440.74 18.3491 440.419C18.671 439.775 19.3148 439.131 20.2805 439.453C21.8901 439.453 22.212 439.775 22.212 440.419ZM20.9244 443.638L19.3148 445.247C18.3491 446.213 17.3833 447.179 16.7395 448.144C16.4176 448.788 15.7738 449.11 15.4519 449.754C15.1299 450.398 14.808 450.72 14.4861 451.364C13.8423 452.329 13.5204 453.617 13.5204 454.905C13.5204 455.87 14.4861 457.158 15.4519 457.802C15.7738 458.124 16.4176 458.768 17.0614 459.09C17.7052 459.411 18.0272 460.055 18.3491 460.699C19.9586 462.952 21.2463 465.528 21.5682 468.103H20.2805C20.6025 466.815 20.9244 465.528 21.5682 464.24C21.8901 463.596 22.212 462.952 22.5339 462.309C22.8558 461.665 23.1778 461.021 23.8216 460.699C24.1435 460.055 24.7873 459.733 25.1092 459.09C25.7531 458.768 26.075 458.124 26.7188 457.802C27.6845 456.836 28.3284 455.87 28.6503 454.905C28.6503 453.939 28.3284 452.651 27.6845 451.364C27.3626 450.72 27.0407 450.398 26.7188 449.754C26.3969 449.11 26.075 448.788 25.4312 448.144C24.4654 447.179 23.4997 446.213 22.8558 445.247L20.9244 443.638Z" fill="#E3C5AA"/>
<path d="M22.212 425.611L22.5339 425.289V424.967C22.5339 424.646 22.8558 424.324 22.8558 424.002C23.1778 423.358 23.4997 423.036 23.8216 422.392C24.4654 421.426 25.4312 420.139 26.075 419.173C26.3969 418.529 26.7188 418.207 27.3626 417.563C27.6845 416.92 28.0065 416.276 28.3284 415.632C28.9722 414.344 29.2941 413.057 28.9722 411.447C28.9722 410.803 28.6503 409.838 28.0065 409.516C27.6845 408.872 27.0407 408.55 26.7188 407.906C26.075 407.584 25.7531 406.94 25.1092 406.618C24.4654 406.296 24.1435 405.653 23.8216 405.331C23.1778 404.365 22.5339 403.077 21.8901 402.112C21.5682 400.824 20.9244 399.536 20.9244 398.571C20.9244 398.249 20.6025 397.927 20.2805 397.927C19.9586 397.927 19.6367 398.249 19.6367 398.571C19.6367 399.858 19.3148 401.146 18.671 402.112C18.3491 403.399 17.7052 404.365 16.7395 405.331C16.4176 405.975 15.7738 406.296 15.4519 406.618C15.1299 406.94 14.4861 407.584 13.8423 407.906C13.1985 408.228 12.8765 408.872 12.5546 409.516C12.2327 410.159 11.9108 410.803 11.5889 411.447C11.267 413.057 11.9108 414.344 12.2327 415.632C12.5546 416.276 12.8765 416.92 13.1985 417.563C13.5204 418.207 13.8423 418.851 14.4861 419.173C15.1299 420.139 16.0957 421.426 16.7395 422.392C17.0614 423.036 17.3833 423.358 17.7052 424.002C18.0272 424.646 18.3491 425.289 18.3491 425.611C18.671 426.255 19.3148 426.899 20.2805 426.577C21.8901 426.577 22.212 426.255 22.212 425.611ZM20.9244 422.392L19.3148 420.783C18.3491 419.817 17.3833 418.851 16.7395 417.885C16.4176 417.242 15.7738 416.92 15.4519 416.276C15.1299 415.632 14.808 415.31 14.4861 414.666C13.8423 413.7 13.5204 412.413 13.5204 411.125C13.5204 410.159 14.4861 408.872 15.4519 408.228C15.7738 407.906 16.4176 407.262 17.0614 406.94C17.7052 406.618 18.0272 405.975 18.3491 405.331C19.9586 403.077 21.2463 400.502 21.5682 397.927H20.2805C20.6025 399.214 20.9244 400.502 21.5682 401.79C21.8901 402.434 22.212 403.077 22.5339 403.721C22.8558 404.365 23.1778 405.009 23.8216 405.331C24.1435 405.975 24.7873 406.297 25.1092 406.94C25.7531 407.262 26.075 407.906 26.7188 408.228C27.6845 409.194 28.3284 410.159 28.6503 411.125C28.6503 412.091 28.3284 413.379 27.6845 414.666C27.3626 415.31 27.0407 415.632 26.7188 416.276C26.3969 416.92 26.075 417.242 25.4312 417.885C24.4654 418.851 23.4997 419.817 22.8558 420.783L20.9244 422.392Z" fill="#E3C5AA"/>
<path d="M21.5681 446.213C22.212 446.857 22.8558 447.501 23.4996 448.145C24.1434 448.788 24.7873 449.432 25.4311 450.398C26.0749 451.364 26.3968 452.329 26.3968 453.295C26.3968 453.939 26.3968 454.261 26.3968 454.905C26.3968 455.549 26.0749 455.87 26.0749 456.514C25.753 456.836 25.753 457.48 25.4311 457.802C25.1092 458.124 24.7873 458.768 24.4653 458.768C24.1434 459.09 23.8215 459.412 23.4996 459.733C23.1777 460.055 22.8558 460.377 22.8558 461.021C21.89 462.631 21.5681 464.562 21.2462 466.172C21.2462 466.172 21.2462 466.494 20.9243 466.494C20.9243 466.494 20.6024 466.494 20.6024 466.172C20.2805 464.24 19.9586 462.631 18.9928 461.021C18.6709 460.377 18.0271 459.412 17.3833 458.768V458.446H17.0613C17.0613 458.124 16.7394 458.124 16.7394 457.802C16.4175 457.48 16.0956 456.836 16.0956 456.514C15.7737 455.549 15.4518 454.583 15.4518 453.295C15.4518 452.329 16.0956 451.364 16.4175 450.398C17.0613 449.432 17.7052 448.788 18.349 448.145C18.6709 447.823 18.9928 447.501 19.3147 447.179L19.9586 446.857L20.2805 446.535C20.2805 445.891 20.9243 445.891 21.5681 446.213C21.2462 445.891 21.2462 445.891 21.5681 446.213ZM20.9243 447.823L20.2805 448.145C19.9586 448.467 19.6367 448.788 19.3147 449.11C18.6709 449.754 18.0271 450.398 17.7052 451.042C17.3833 451.686 16.7394 452.651 16.7394 453.295C16.7394 453.939 16.7394 454.905 17.0613 455.549C17.3833 455.871 17.3833 456.192 17.7052 456.514C17.7052 456.836 18.0271 456.836 18.0271 457.158L18.349 457.802C18.9928 458.446 19.3147 459.412 19.9586 460.377C20.6024 461.987 21.2462 463.918 21.2462 465.85H20.6024C20.6024 463.918 20.9243 461.987 21.89 460.377C22.212 460.055 22.212 459.412 22.5339 459.09C22.8558 458.768 23.1777 458.124 23.4996 457.802C23.8215 457.48 24.1434 457.158 24.4653 456.836C24.7873 456.514 24.7873 456.192 25.1092 455.871C25.1092 455.549 25.4311 455.227 25.4311 454.583C25.4311 454.261 25.4311 453.617 25.4311 453.295C25.4311 452.651 24.7873 451.686 24.4653 451.042C23.8215 450.398 23.4996 449.754 22.8558 449.11C22.5339 448.788 22.212 448.467 21.89 448.145C21.2462 448.145 20.9243 448.145 20.9243 447.823Z" fill="#E3C5AA"/>
<path d="M21.5682 419.817C22.212 419.173 22.8559 418.529 23.4997 417.885C24.1435 417.241 24.7873 416.598 25.4312 415.632C26.075 414.666 26.3969 413.7 26.3969 412.735C26.3969 412.091 26.3969 411.769 26.3969 411.125C26.3969 410.481 26.075 410.159 26.075 409.515C25.7531 409.194 25.7531 408.55 25.4312 408.228C25.1092 407.906 24.7873 407.262 24.4654 407.262C24.1435 406.94 23.8216 406.618 23.4997 406.296C23.1778 405.974 22.8559 405.652 22.8559 405.009C21.8901 403.399 21.5682 401.468 21.2463 399.858C21.2463 399.858 21.2463 399.536 20.9244 399.536C20.9244 399.536 20.6025 399.536 20.6025 399.858C20.2806 401.79 19.9586 403.399 18.9929 405.009C18.671 405.652 18.0272 406.618 17.3833 407.262L17.0614 407.584L16.7395 407.906C16.7395 408.228 16.4176 408.228 16.4176 408.55C16.0957 408.872 15.7738 409.515 15.7738 409.837C15.4519 410.803 15.1299 411.769 15.1299 413.056C15.1299 414.022 15.7738 414.988 16.0957 415.954C16.7395 416.919 17.3833 417.563 18.0272 418.207C18.3491 418.529 18.671 418.851 18.9929 419.173L19.6367 419.495L19.9586 419.817C20.2806 420.139 20.9244 420.139 21.5682 419.817C21.2463 419.817 21.2463 420.139 21.5682 419.817ZM20.9244 418.207L20.2806 417.885C19.9586 417.563 19.6367 417.241 19.3148 416.919C18.671 416.276 18.0272 415.632 17.7052 414.988C17.3833 414.344 16.7395 413.378 16.7395 412.735C16.7395 412.091 16.7395 411.125 17.0614 410.481C17.3833 410.159 17.3833 409.837 17.7052 409.515C17.7052 409.194 18.0272 409.194 18.0272 408.872L18.3491 408.228C18.9929 407.584 19.3148 406.618 19.9586 405.653C20.6025 404.043 21.2463 402.111 21.2463 400.18H20.9244C20.9244 402.111 21.2463 404.043 22.212 405.653C22.5339 405.974 22.5339 406.618 22.8559 406.94C23.1778 407.262 23.4997 407.906 23.8216 408.228C24.1435 408.55 24.4654 408.872 24.7873 409.194C25.1092 409.515 25.1092 409.837 25.4312 410.159C25.4312 410.481 25.7531 410.803 25.7531 411.447C25.7531 411.769 25.7531 412.413 25.7531 412.735C25.7531 413.378 25.1092 414.344 24.7873 414.988C24.1435 415.632 23.8216 416.276 23.1778 416.919C22.8559 417.241 22.5339 417.563 22.212 417.885C21.2463 417.885 20.9244 417.885 20.9244 418.207Z" fill="#E3C5AA"/>
<path d="M882.685 864.699H854.679C853.069 864.699 852.104 864.055 852.104 863.089C852.104 862.124 853.391 861.48 854.679 861.48H879.466V836.692C879.466 835.083 880.11 834.117 881.076 834.117C882.042 834.117 882.685 835.405 882.685 836.692V864.699Z" fill="#E3C5AA"/>
<path d="M19.3148 864.699V836.692C19.3148 835.083 19.9586 834.117 20.9244 834.117C21.8901 834.117 22.5339 835.405 22.5339 836.692V861.48H47.3212C48.9308 861.48 49.8965 862.124 49.8965 863.089C49.8965 864.055 48.6089 864.699 47.3212 864.699H19.3148Z" fill="#E3C5AA"/>
<path d="M19.3148 1.33008H97.3212C98.9308 1.33008 99.8965 1.9739 99.8965 2.93964C99.8965 3.90538 98.6089 4.54921 97.3212 4.54921H22.5339V69.3365C22.5339 70.9461 20.9244 71.9118 20.9244 71.9118C19.9586 71.9118 19.3148 70.6241 19.3148 69.3365V1.33008Z" fill="#E3C5AA"/>
<path d="M882.685 1.3291V69.3355C882.685 70.9451 882.042 71.9108 881.076 71.9108C880.11 71.9108 879.466 70.6232 879.466 69.3355V4.54823H854.679C853.069 4.54823 852.104 3.9044 852.104 2.93867C852.104 1.97293 853.391 1.3291 854.679 1.3291H882.685Z" fill="#E3C5AA"/>
<path d="M822.166 864.7H720.763C719.153 864.7 718.188 864.056 718.188 863.09C718.188 862.124 719.475 861.48 720.763 861.48H822.166C823.775 861.48 824.741 862.124 824.741 863.09C824.741 864.056 823.453 864.7 822.166 864.7Z" fill="#E3C5AA"/>
<path d="M882.685 61.8487V163.251C882.685 164.861 882.042 165.827 881.076 165.827C880.11 165.827 879.466 164.539 879.466 163.251V61.8487C879.466 60.2392 880.11 59.2734 881.076 59.2734C882.042 59.2734 882.685 60.5611 882.685 61.8487Z" fill="#E3C5AA"/>
<path d="M79.8345 1.3291H181.237C182.847 1.3291 183.812 1.97293 183.812 2.93867C183.812 3.9044 182.525 4.54823 181.237 4.54823H79.8345C78.5468 4.54823 77.2592 3.9044 77.2592 2.93867C77.2592 1.97293 78.5468 1.3291 79.8345 1.3291Z" fill="#E3C5AA"/>
<path d="M19.3148 804.179V702.776C19.3148 701.167 19.9586 700.201 20.9244 700.201C21.8901 700.201 22.5339 701.489 22.5339 702.776V804.179C22.5339 805.789 21.8901 806.754 20.9244 806.754C19.9586 806.754 19.3148 805.467 19.3148 804.179Z" fill="#E3C5AA"/>
<path d="M79.8345 864.7H181.237C182.847 864.7 183.812 864.056 183.812 863.09C183.812 862.124 182.525 861.48 181.237 861.48H79.8345C78.2249 861.48 77.2592 862.124 77.2592 863.09C77.2592 864.056 78.5468 864.7 79.8345 864.7Z" fill="#E3C5AA"/>
<path d="M882.685 804.179V702.776C882.685 701.167 882.042 700.201 881.076 700.201C880.11 700.201 879.466 701.489 879.466 702.776V804.179C879.466 805.789 880.11 806.754 881.076 806.754C882.042 806.754 882.685 805.467 882.685 804.179Z" fill="#E3C5AA"/>
<path d="M862.166 1.3291H720.763C719.153 1.3291 718.188 1.97293 718.188 2.93867C718.188 3.9044 719.475 4.54823 720.763 4.54823H862.166C863.775 4.54823 864.741 3.9044 864.741 2.93867C864.741 1.97293 863.453 1.3291 862.166 1.3291Z" fill="#E3C5AA"/>
<path d="M19.3148 61.8487V163.251C19.3148 164.861 19.9586 165.827 20.9244 165.827C21.8901 165.827 22.5339 164.539 22.5339 163.251V61.8487C22.5339 60.5611 21.8901 59.2734 20.9244 59.2734C19.9586 59.2734 19.3148 60.5611 19.3148 61.8487Z" fill="#E3C5AA"/>
<path d="M687.928 864.7L487.054 863.734C486.732 863.734 486.089 863.412 486.089 862.768C486.089 862.447 486.41 861.803 487.054 861.803L687.928 860.837C689.537 860.837 690.503 861.481 690.503 862.446C690.825 864.056 689.537 864.7 687.928 864.7Z" fill="#E3C5AA"/>
<path d="M882.685 195.764L881.719 396.637C881.719 396.959 881.398 397.603 880.754 397.603C880.432 397.603 879.788 397.281 879.788 396.637L878.822 195.764C878.822 194.154 879.466 193.188 880.432 193.188C882.041 193.188 882.685 194.476 882.685 195.764Z" fill="#E3C5AA"/>
<path d="M213.746 1.01465L427.97 2.21465C428.313 2.21465 429 2.61465 429 3.41465C429 3.81465 428.657 4.61465 427.97 4.61465L213.746 5.01465C212.03 5.01465 211 4.21465 211 3.01465C211 1.81465 212.373 1.01465 213.746 1.01465Z" fill="#E3C5AA"/>
<path d="M19.3148 669.943L20.2805 469.069C20.2805 468.747 20.6024 468.104 21.2462 468.104C21.5681 468.104 22.212 468.425 22.212 469.069L22.5339 669.943C22.5339 671.552 21.8901 672.518 20.9243 672.518C19.9586 672.84 19.3148 671.552 19.3148 669.943C19.3148 670.265 19.3148 669.943 19.3148 669.943Z" fill="#E3C5AA"/>
<path d="M213.75 864.7L414.624 863.734C414.946 863.734 415.59 863.412 415.59 862.768C415.59 862.447 415.268 861.803 414.624 861.803L213.75 860.837C212.141 860.837 211.175 861.481 211.175 862.446C211.175 864.056 212.462 864.7 213.75 864.7Z" fill="#E3C5AA"/>
<path d="M882.685 669.943L881.719 469.069C881.719 468.747 881.398 468.104 880.754 468.104C880.432 468.104 879.788 468.425 879.788 469.069L878.822 669.943C878.822 671.552 879.466 672.518 880.432 672.518C882.041 672.84 882.685 671.552 882.685 669.943C882.685 670.265 882.685 669.943 882.685 669.943Z" fill="#E3C5AA"/>
<path d="M688.188 1.01465L473.034 2.21465C472.69 2.21465 472 2.61465 472 3.41465C472 3.81465 472.345 4.61465 473.034 4.61465L688.188 5.01465C689.912 5.01465 690.947 4.21465 690.947 3.01465C691.292 1.81465 689.912 1.01465 688.188 1.01465Z" fill="#E3C5AA"/>
<path d="M19.3148 195.764L20.2805 396.637C20.2805 396.959 20.6024 397.603 21.2462 397.603C21.5681 397.603 22.212 397.281 22.212 396.637L22.5339 195.764C22.5339 194.154 21.8901 193.188 20.9243 193.188C19.9586 193.188 19.3148 194.476 19.3148 195.764Z" fill="#E3C5AA"/>
<path d="M830.857 863.09C830.857 861.48 834.398 860.192 838.583 860.192C842.768 860.192 846.309 861.48 846.309 863.09C846.309 864.699 842.768 865.987 838.583 865.987C834.398 865.987 830.857 864.699 830.857 863.09Z" fill="#E3C5AA"/>
<path d="M20.9244 812.871C22.5339 812.871 23.8216 816.412 23.8216 820.597C23.8216 824.782 22.5339 828.323 20.9244 828.323C19.3148 828.323 18.0272 824.782 18.0272 820.597C17.7052 816.412 19.3148 812.871 20.9244 812.871Z" fill="#E3C5AA"/>
<path d="M71.1427 863.09C71.1427 861.48 67.6017 860.192 63.4168 860.192C59.232 860.192 55.6909 861.48 55.6909 863.09C55.6909 864.699 59.232 865.987 63.4168 865.987C67.6017 865.987 71.1427 864.699 71.1427 863.09Z" fill="#E3C5AA"/>
<path d="M881.076 812.871C879.466 812.871 878.178 816.412 878.178 820.597C878.178 824.782 879.466 828.323 881.076 828.323C882.685 828.323 883.973 824.782 883.973 820.597C883.973 816.412 882.685 812.871 881.076 812.871Z" fill="#E3C5AA"/>
<path d="M695.976 863.09C695.976 861.48 699.517 860.192 703.702 860.192C707.887 860.192 711.428 861.48 711.428 863.09C711.428 864.699 707.887 865.987 703.702 865.987C699.517 865.987 695.976 864.699 695.976 863.09Z" fill="#E3C5AA"/>
<path d="M881.076 188.04C879.466 188.04 878.178 184.499 878.178 180.314C878.178 176.129 879.466 172.588 881.076 172.588C882.685 172.588 883.973 176.129 883.973 180.314C883.973 184.499 882.685 188.04 881.076 188.04Z" fill="#E3C5AA"/>
<path d="M206.024 2.93865C206.024 4.54821 202.483 5.83587 198.298 5.83587C194.113 5.83587 190.572 4.54821 190.572 2.93865C190.572 1.32908 194.113 0.0414332 198.298 0.0414332C202.483 -0.28048 206.024 1.32908 206.024 2.93865Z" fill="#E3C5AA"/>
<path d="M20.9244 677.991C22.5339 677.991 23.8216 681.532 23.8216 685.717C23.8216 689.902 22.5339 693.443 20.9244 693.443C19.3148 693.443 18.0272 689.902 18.0272 685.717C17.7052 681.532 19.3148 677.991 20.9244 677.991Z" fill="#E3C5AA"/>
<path d="M206.024 863.09C206.024 861.48 202.483 860.192 198.298 860.192C194.113 860.192 190.572 861.48 190.572 863.09C190.572 864.699 194.113 865.987 198.298 865.987C202.483 865.987 206.024 864.699 206.024 863.09Z" fill="#E3C5AA"/>
<path d="M881.076 677.991C879.466 677.991 878.178 681.532 878.178 685.717C878.178 689.902 879.466 693.443 881.076 693.443C882.685 693.443 883.973 689.902 883.973 685.717C883.973 681.532 882.685 677.991 881.076 677.991Z" fill="#E3C5AA"/>
<path d="M695.976 2.93865C695.976 4.54821 699.517 5.83587 703.702 5.83587C707.887 5.83587 711.428 4.54821 711.428 2.93865C711.428 1.32908 707.887 0.0414332 703.702 0.0414332C699.517 -0.28048 695.976 1.32908 695.976 2.93865Z" fill="#E3C5AA"/>
<path d="M443 2.93865C443 4.54821 446.541 5.83587 450.726 5.83587C454.911 5.83587 458.452 4.54821 458.452 2.93865C458.452 1.32908 454.911 0.0414332 450.726 0.0414332C446.541 -0.28048 443 1.32908 443 2.93865Z" fill="#E3C5AA"/>
<path d="M20.9244 188.04C22.5339 188.04 23.8216 184.499 23.8216 180.314C23.8216 176.129 22.5339 172.588 20.9244 172.588C19.3148 172.588 18.0272 176.129 18.0272 180.314C17.7052 184.499 19.3148 188.04 20.9244 188.04Z" fill="#E3C5AA"/>
<path d="M9.33552 443.959C8.36978 443.959 7.72595 443.316 7.72595 442.35C7.72595 441.384 8.36978 440.74 9.33552 440.74C10.3013 440.74 10.9451 441.384 10.9451 442.35C10.9451 443.316 10.3013 443.959 9.33552 443.959Z" fill="#E3C5AA"/>
<path d="M9.33552 422.07C8.36978 422.07 7.72595 422.714 7.72595 423.68C7.72595 424.646 8.36978 425.289 9.33552 425.289C10.3013 425.289 10.9451 424.646 10.9451 423.68C10.9451 422.714 10.3013 422.07 9.33552 422.07Z" fill="#E3C5AA"/>
<path d="M32.5131 443.959C31.5474 443.959 30.9036 443.316 30.9036 442.35C30.9036 441.384 31.5474 440.74 32.5131 440.74C33.4789 440.74 34.1227 441.384 34.1227 442.35C34.1227 443.316 33.4789 443.959 32.5131 443.959Z" fill="#E3C5AA"/>
<path d="M32.5131 422.07C31.5474 422.07 30.9036 422.714 30.9036 423.68C30.9036 424.646 31.5474 425.289 32.5131 425.289C33.4789 425.289 34.1227 424.646 34.1227 423.68C34.1227 422.714 33.4789 422.07 32.5131 422.07Z" fill="#E3C5AA"/>
</svg>
