<svg width="58" height="72" viewBox="0 0 58 72" fill="none" xmlns="http://www.w3.org/2000/svg">
<g clip-path="url(#clip0_734_977)">
<rect y="13" width="59" height="23" fill="#F99C45"/>
<path d="M38.5 19.567C38.5 20.8236 39.2734 21.887 40.4334 22.2736V16.8604C39.2734 17.247 38.5 18.3104 38.5 19.567Z" fill="#2F383E"/>
<path d="M28.8334 16.667C26.9967 16.667 24.9667 19.857 24.9667 24.4004C24.9667 28.9437 26.9967 32.1337 28.8334 32.1337C30.67 32.1337 32.7 28.9437 32.7 24.4004C32.7 19.857 30.67 16.667 28.8334 16.667Z" fill="#2F383E"/>
<path d="M42.3666 24.5938V30.0071C43.5266 29.6205 44.3 28.5571 44.3 27.3005C44.3 26.0439 43.5266 24.9804 42.3666 24.5938Z" fill="#2F383E"/>
<path d="M16.2666 16.667C14.43 16.667 12.4 19.857 12.4 24.4004C12.4 28.9437 14.43 32.1337 16.2666 32.1337C18.1033 32.1337 20.1333 28.9437 20.1333 24.4004C20.1333 19.857 18.1034 16.667 16.2666 16.667Z" fill="#2F383E"/>
<path d="M60.1 8.93359H-2.1C-3.74337 8.93359 -5 10.1902 -5 11.8336V29.2336C-5 29.6202 -4.80663 30.007 -4.42 30.1036L-1.81 31.167L-4.42 32.2302C-4.80663 32.3269 -5 32.7136 -5 33.1002V35.0336C-5 36.677 -3.74337 37.9336 -2.1 37.9336H20.1334V62.1002C20.1334 62.6802 20.52 63.0669 21.1 63.0669H26.9C27.48 63.0669 27.8666 62.6802 27.8666 62.1002V37.9336H60.1C61.7434 37.9336 63 36.677 63 35.0336V11.8336C63 10.1902 61.7434 8.93359 60.1 8.93359ZM9.5 33.1002C9.5 33.6802 9.11337 34.0669 8.53337 34.0669C7.95337 34.0669 7.56674 33.6802 7.56674 33.1002V18.3102L3.50674 23.0469C3.12011 23.4335 2.54011 23.5302 2.15337 23.1435C1.76663 22.7567 1.67 22.1769 2.05674 21.7901L7.85674 15.0235C8.05011 14.7335 8.53337 14.6369 8.82337 14.8301C9.21 14.9269 9.5 15.3136 9.5 15.7002V33.1002ZM16.2666 34.0669C12.98 34.0669 10.4666 29.8135 10.4666 24.4002C10.4666 18.987 12.98 14.7336 16.2666 14.7336C19.5533 14.7336 22.0666 18.987 22.0666 24.4002C22.0666 29.8135 19.5534 34.0669 16.2666 34.0669ZM25.9334 61.1336H22.0667V37.9336H25.9334V61.1336ZM28.8334 34.0669C25.5467 34.0669 23.0334 29.8135 23.0334 24.4002C23.0334 18.987 25.5467 14.7336 28.8334 14.7336C32.12 14.7336 34.6334 18.987 34.6334 24.4002C34.6334 29.8135 32.12 34.0669 28.8334 34.0669ZM46.2334 27.3002C46.2334 29.6202 44.59 31.5536 42.3667 32.0369V33.1002C42.3667 33.6802 41.9801 34.0669 41.4001 34.0669C40.8201 34.0669 40.4335 33.6802 40.4335 33.1002V32.0369C38.2101 31.5535 36.5669 29.6202 36.5669 27.3002C36.5669 26.7202 36.9535 26.3336 37.5335 26.3336C38.1135 26.3336 38.5 26.7202 38.5 27.3002C38.5 28.5569 39.2734 29.6202 40.4334 30.0069V24.3035C38.21 23.8201 36.5667 21.8869 36.5667 19.5669C36.5667 17.2469 38.2101 15.3135 40.4334 14.8302V13.7669C40.4334 13.1869 40.82 12.8002 41.4 12.8002C41.98 12.8002 42.3666 13.1869 42.3666 13.7669V14.8302C44.59 15.3136 46.2333 17.2469 46.2333 19.5669C46.2333 20.1469 45.8466 20.5335 45.2666 20.5335C44.6866 20.5335 44.3 20.1469 44.3 19.5669C44.3 18.3102 43.5266 17.2469 42.3666 16.8602V22.5636C44.59 23.0469 46.2334 24.9802 46.2334 27.3002Z" fill="#2F383E"/>
<path d="M54 18L54.4879 18.1094H54.4879L54 18ZM53.8295 18.5541L54.2967 18.7322H54.2967L53.8295 18.5541ZM54 27.4437L53.5 27.4437L54 27.4437ZM53.6464 30.3536C53.8417 30.5488 54.1583 30.5488 54.3535 30.3536L57.5355 27.1716C57.7308 26.9763 57.7308 26.6597 57.5355 26.4645C57.3403 26.2692 57.0237 26.2692 56.8284 26.4645L54 29.2929L51.1716 26.4645C50.9763 26.2692 50.6597 26.2692 50.4645 26.4645C50.2692 26.6597 50.2692 26.9763 50.4645 27.1716L53.6464 30.3536ZM53.4136 24.6807L53.8705 24.4776L53.4136 24.6807ZM54 15C53.5047 15.0684 53.5047 15.0684 53.5047 15.0683C53.5047 15.0683 53.5047 15.0683 53.5047 15.0683C53.5047 15.0683 53.5047 15.0683 53.5047 15.0683C53.5047 15.0684 53.5047 15.0686 53.5048 15.0689C53.5048 15.0695 53.505 15.0705 53.5052 15.072C53.5056 15.075 53.5062 15.0797 53.507 15.086C53.5087 15.0986 53.5112 15.1178 53.5142 15.143C53.5204 15.1933 53.5291 15.2672 53.5388 15.3599C53.5581 15.5455 53.5814 15.8046 53.5968 16.0977C53.6285 16.6971 53.6245 17.3896 53.5121 17.8906L54.4879 18.1094C54.6319 17.4673 54.6279 16.6597 54.5955 16.045C54.5789 15.731 54.554 15.4544 54.5333 15.2561C54.523 15.1568 54.5136 15.0768 54.5068 15.0211C54.5034 14.9932 54.5006 14.9714 54.4986 14.9563C54.4976 14.9487 54.4968 14.9428 54.4963 14.9387C54.496 14.9366 54.4958 14.935 54.4956 14.9338C54.4955 14.9332 54.4954 14.9327 54.4954 14.9324C54.4954 14.9322 54.4954 14.932 54.4953 14.9319C54.4953 14.9318 54.4953 14.9318 54.4953 14.9317C54.4953 14.9317 54.4953 14.9316 54 15ZM53.5121 17.8906C53.478 18.0427 53.4273 18.2054 53.3623 18.376L54.2967 18.7322C54.375 18.5268 54.4412 18.3175 54.4879 18.1094L53.5121 17.8906ZM53.5 27.4437L53.5 30L54.5 30L54.5 27.4437L53.5 27.4437ZM52.9567 24.8838C53.3149 25.6897 53.5 26.5618 53.5 27.4437L54.5 27.4437C54.5 26.4219 54.2856 25.4114 53.8705 24.4776L52.9567 24.8838ZM53.3623 18.376C52.5987 20.3795 52.0046 22.7414 52.9567 24.8838L53.8705 24.4776C53.0933 22.7288 53.5438 20.7077 54.2967 18.7322L53.3623 18.376Z" fill="#F99C45"/>
</g>
<defs>
<clipPath id="clip0_734_977">
<rect width="58" height="72" fill="white"/>
</clipPath>
</defs>
</svg>
