<svg width="14" height="21" viewBox="0 0 14 21" fill="none" xmlns="http://www.w3.org/2000/svg">
<path d="M13.1766 10.5001C13.1766 10.2529 13.1024 10.0059 12.9664 9.82061L6.79013 0.555899C6.56778 0.222271 6.19706 -7.39168e-05 5.76481 -7.39546e-05L2.05893 -7.42786e-05C1.37946 -7.4338e-05 0.823488 0.555899 0.823488 1.23537C0.823488 1.48237 0.897678 1.72937 1.03362 1.91462L6.75303 10.5001L1.03362 19.0853C0.897676 19.2706 0.823486 19.5176 0.823486 19.7648C0.823486 20.444 1.37946 21 2.05893 21L5.76481 21C6.19706 21 6.56778 20.7777 6.79012 20.444L12.9664 11.1793C13.1024 10.9941 13.1766 10.7471 13.1766 10.5001Z" fill="white"/>
</svg>
