<svg width="860" height="149" viewBox="0 0 860 149" fill="none" xmlns="http://www.w3.org/2000/svg">
<path d="M78.1959 127.257V0L54.8739 13.858C58.2539 15.548 62.8169 17.069 62.8169 21.125V81.458C61.4649 84.838 58.4229 88.725 51.6629 88.725C44.5649 88.725 41.0159 82.641 41.0159 76.388V49.686C41.0159 41.912 36.4529 33.969 24.4539 33.969C14.8209 33.969 7.38486 43.095 8.56786 50.024C11.4409 46.306 11.7789 44.954 18.2009 44.954C22.5949 44.954 25.6369 48.503 25.6369 55.601V83.486C25.6369 97.006 31.3829 109.512 44.9029 109.512C54.8739 109.512 60.1129 103.259 61.9719 98.527H62.8169V118.638C62.8169 121.511 59.7749 125.567 56.0569 125.567H9.58186C5.86386 125.567 2.99087 122.525 0.286865 119.314C1.97687 129.116 2.14587 148.551 12.9619 148.551H54.8739C69.4079 148.551 78.1959 137.397 78.1959 127.257Z" fill="#C4C4C4"/>
<path d="M78.1959 127.257V0L54.8739 13.858C58.2539 15.548 62.8169 17.069 62.8169 21.125V81.458C61.4649 84.838 58.4229 88.725 51.6629 88.725C44.5649 88.725 41.0159 82.641 41.0159 76.388V49.686C41.0159 41.912 36.4529 33.969 24.4539 33.969C14.8209 33.969 7.38486 43.095 8.56786 50.024C11.4409 46.306 11.7789 44.954 18.2009 44.954C22.5949 44.954 25.6369 48.503 25.6369 55.601V83.486C25.6369 97.006 31.3829 109.512 44.9029 109.512C54.8739 109.512 60.1129 103.259 61.9719 98.527H62.8169V118.638C62.8169 121.511 59.7749 125.567 56.0569 125.567H9.58186C5.86386 125.567 2.99087 122.525 0.286865 119.314C1.97687 129.116 2.14587 148.551 12.9619 148.551H54.8739C69.4079 148.551 78.1959 137.397 78.1959 127.257Z" fill="#FF8412"/>
<path d="M78.1959 127.257V0L54.8739 13.858C58.2539 15.548 62.8169 17.069 62.8169 21.125V81.458C61.4649 84.838 58.4229 88.725 51.6629 88.725C44.5649 88.725 41.0159 82.641 41.0159 76.388V49.686C41.0159 41.912 36.4529 33.969 24.4539 33.969C14.8209 33.969 7.38486 43.095 8.56786 50.024C11.4409 46.306 11.7789 44.954 18.2009 44.954C22.5949 44.954 25.6369 48.503 25.6369 55.601V83.486C25.6369 97.006 31.3829 109.512 44.9029 109.512C54.8739 109.512 60.1129 103.259 61.9719 98.527H62.8169V118.638C62.8169 121.511 59.7749 125.567 56.0569 125.567H9.58186C5.86386 125.567 2.99087 122.525 0.286865 119.314C1.97687 129.116 2.14587 148.551 12.9619 148.551H54.8739C69.4079 148.551 78.1959 137.397 78.1959 127.257Z" fill="url(#paint0_linear_278_4046)"/>
<path d="M78.1959 127.257V0L54.8739 13.858C58.2539 15.548 62.8169 17.069 62.8169 21.125V81.458C61.4649 84.838 58.4229 88.725 51.6629 88.725C44.5649 88.725 41.0159 82.641 41.0159 76.388V49.686C41.0159 41.912 36.4529 33.969 24.4539 33.969C14.8209 33.969 7.38486 43.095 8.56786 50.024C11.4409 46.306 11.7789 44.954 18.2009 44.954C22.5949 44.954 25.6369 48.503 25.6369 55.601V83.486C25.6369 97.006 31.3829 109.512 44.9029 109.512C54.8739 109.512 60.1129 103.259 61.9719 98.527H62.8169V118.638C62.8169 121.511 59.7749 125.567 56.0569 125.567H9.58186C5.86386 125.567 2.99087 122.525 0.286865 119.314C1.97687 129.116 2.14587 148.551 12.9619 148.551H54.8739C69.4079 148.551 78.1959 137.397 78.1959 127.257Z" fill="url(#paint1_linear_278_4046)" fill-opacity="0.3"/>
<path d="M157.796 76.895C157.796 61.685 150.191 49.179 138.023 47.658C146.642 44.785 151.543 36.673 151.543 26.364C151.543 11.154 146.135 1.183 128.897 1.183C114.025 1.183 103.716 10.478 103.716 23.153C103.716 32.279 108.955 39.546 118.25 39.546C119.94 39.546 123.32 39.377 124.503 37.518C119.095 37.518 116.898 34.476 116.898 28.899C116.898 23.153 121.292 20.618 126.024 20.618C132.784 20.618 135.995 24.674 135.995 30.082C135.995 41.912 128.052 47.996 115.039 49.01C129.573 50.362 140.896 55.432 140.896 71.994C140.896 88.049 137.178 94.471 126.869 94.471H110.307C105.575 94.471 105.237 89.908 105.744 87.035C102.871 90.415 100.167 97.006 100.167 104.273C100.167 110.526 103.04 115.596 105.744 117.286H130.925C149.853 117.286 157.796 95.654 157.796 76.895Z" fill="#C4C4C4"/>
<path d="M157.796 76.895C157.796 61.685 150.191 49.179 138.023 47.658C146.642 44.785 151.543 36.673 151.543 26.364C151.543 11.154 146.135 1.183 128.897 1.183C114.025 1.183 103.716 10.478 103.716 23.153C103.716 32.279 108.955 39.546 118.25 39.546C119.94 39.546 123.32 39.377 124.503 37.518C119.095 37.518 116.898 34.476 116.898 28.899C116.898 23.153 121.292 20.618 126.024 20.618C132.784 20.618 135.995 24.674 135.995 30.082C135.995 41.912 128.052 47.996 115.039 49.01C129.573 50.362 140.896 55.432 140.896 71.994C140.896 88.049 137.178 94.471 126.869 94.471H110.307C105.575 94.471 105.237 89.908 105.744 87.035C102.871 90.415 100.167 97.006 100.167 104.273C100.167 110.526 103.04 115.596 105.744 117.286H130.925C149.853 117.286 157.796 95.654 157.796 76.895Z" fill="#FF8412"/>
<path d="M157.796 76.895C157.796 61.685 150.191 49.179 138.023 47.658C146.642 44.785 151.543 36.673 151.543 26.364C151.543 11.154 146.135 1.183 128.897 1.183C114.025 1.183 103.716 10.478 103.716 23.153C103.716 32.279 108.955 39.546 118.25 39.546C119.94 39.546 123.32 39.377 124.503 37.518C119.095 37.518 116.898 34.476 116.898 28.899C116.898 23.153 121.292 20.618 126.024 20.618C132.784 20.618 135.995 24.674 135.995 30.082C135.995 41.912 128.052 47.996 115.039 49.01C129.573 50.362 140.896 55.432 140.896 71.994C140.896 88.049 137.178 94.471 126.869 94.471H110.307C105.575 94.471 105.237 89.908 105.744 87.035C102.871 90.415 100.167 97.006 100.167 104.273C100.167 110.526 103.04 115.596 105.744 117.286H130.925C149.853 117.286 157.796 95.654 157.796 76.895Z" fill="url(#paint2_linear_278_4046)"/>
<path d="M157.796 76.895C157.796 61.685 150.191 49.179 138.023 47.658C146.642 44.785 151.543 36.673 151.543 26.364C151.543 11.154 146.135 1.183 128.897 1.183C114.025 1.183 103.716 10.478 103.716 23.153C103.716 32.279 108.955 39.546 118.25 39.546C119.94 39.546 123.32 39.377 124.503 37.518C119.095 37.518 116.898 34.476 116.898 28.899C116.898 23.153 121.292 20.618 126.024 20.618C132.784 20.618 135.995 24.674 135.995 30.082C135.995 41.912 128.052 47.996 115.039 49.01C129.573 50.362 140.896 55.432 140.896 71.994C140.896 88.049 137.178 94.471 126.869 94.471H110.307C105.575 94.471 105.237 89.908 105.744 87.035C102.871 90.415 100.167 97.006 100.167 104.273C100.167 110.526 103.04 115.596 105.744 117.286H130.925C149.853 117.286 157.796 95.654 157.796 76.895Z" fill="url(#paint3_linear_278_4046)" fill-opacity="0.3"/>
<path d="M238.475 81.12C238.475 61.178 226.814 50.024 213.463 50.024C205.689 50.024 197.408 52.728 192.676 59.826V23.829H218.702C223.434 23.829 223.772 28.392 223.265 31.265C226.138 27.885 228.842 21.294 228.842 14.027C228.842 7.774 225.969 2.704 223.265 1.014H177.297V117.286H218.195C232.391 117.286 238.475 100.386 238.475 81.12ZM221.913 80.613C221.913 90.077 217.181 94.302 212.111 94.302H192.676V76.726C196.225 70.811 201.802 67.431 208.562 67.431C216.505 67.431 221.913 73.515 221.913 80.613Z" fill="#C4C4C4"/>
<path d="M238.475 81.12C238.475 61.178 226.814 50.024 213.463 50.024C205.689 50.024 197.408 52.728 192.676 59.826V23.829H218.702C223.434 23.829 223.772 28.392 223.265 31.265C226.138 27.885 228.842 21.294 228.842 14.027C228.842 7.774 225.969 2.704 223.265 1.014H177.297V117.286H218.195C232.391 117.286 238.475 100.386 238.475 81.12ZM221.913 80.613C221.913 90.077 217.181 94.302 212.111 94.302H192.676V76.726C196.225 70.811 201.802 67.431 208.562 67.431C216.505 67.431 221.913 73.515 221.913 80.613Z" fill="#FF8412"/>
<path d="M238.475 81.12C238.475 61.178 226.814 50.024 213.463 50.024C205.689 50.024 197.408 52.728 192.676 59.826V23.829H218.702C223.434 23.829 223.772 28.392 223.265 31.265C226.138 27.885 228.842 21.294 228.842 14.027C228.842 7.774 225.969 2.704 223.265 1.014H177.297V117.286H218.195C232.391 117.286 238.475 100.386 238.475 81.12ZM221.913 80.613C221.913 90.077 217.181 94.302 212.111 94.302H192.676V76.726C196.225 70.811 201.802 67.431 208.562 67.431C216.505 67.431 221.913 73.515 221.913 80.613Z" fill="url(#paint4_linear_278_4046)"/>
<path d="M238.475 81.12C238.475 61.178 226.814 50.024 213.463 50.024C205.689 50.024 197.408 52.728 192.676 59.826V23.829H218.702C223.434 23.829 223.772 28.392 223.265 31.265C226.138 27.885 228.842 21.294 228.842 14.027C228.842 7.774 225.969 2.704 223.265 1.014H177.297V117.286H218.195C232.391 117.286 238.475 100.386 238.475 81.12ZM221.913 80.613C221.913 90.077 217.181 94.302 212.111 94.302H192.676V76.726C196.225 70.811 201.802 67.431 208.562 67.431C216.505 67.431 221.913 73.515 221.913 80.613Z" fill="url(#paint5_linear_278_4046)" fill-opacity="0.3"/>
<path d="M311.195 88.049C308.491 91.26 305.618 94.302 301.9 94.302L271.987 94.471V61.347L283.141 67.093L295.309 57.629L282.972 48.334L271.987 54.756V23.829H298.013C302.745 23.829 303.083 28.392 302.576 31.265C305.449 27.885 308.153 21.294 308.153 14.027C308.153 7.774 305.28 2.704 302.576 1.014H256.608V117.286H298.52C309.336 117.286 309.505 97.851 311.195 88.049Z" fill="#C4C4C4"/>
<path d="M311.195 88.049C308.491 91.26 305.618 94.302 301.9 94.302L271.987 94.471V61.347L283.141 67.093L295.309 57.629L282.972 48.334L271.987 54.756V23.829H298.013C302.745 23.829 303.083 28.392 302.576 31.265C305.449 27.885 308.153 21.294 308.153 14.027C308.153 7.774 305.28 2.704 302.576 1.014H256.608V117.286H298.52C309.336 117.286 309.505 97.851 311.195 88.049Z" fill="#FF8412"/>
<path d="M311.195 88.049C308.491 91.26 305.618 94.302 301.9 94.302L271.987 94.471V61.347L283.141 67.093L295.309 57.629L282.972 48.334L271.987 54.756V23.829H298.013C302.745 23.829 303.083 28.392 302.576 31.265C305.449 27.885 308.153 21.294 308.153 14.027C308.153 7.774 305.28 2.704 302.576 1.014H256.608V117.286H298.52C309.336 117.286 309.505 97.851 311.195 88.049Z" fill="url(#paint6_linear_278_4046)"/>
<path d="M311.195 88.049C308.491 91.26 305.618 94.302 301.9 94.302L271.987 94.471V61.347L283.141 67.093L295.309 57.629L282.972 48.334L271.987 54.756V23.829H298.013C302.745 23.829 303.083 28.392 302.576 31.265C305.449 27.885 308.153 21.294 308.153 14.027C308.153 7.774 305.28 2.704 302.576 1.014H256.608V117.286H298.52C309.336 117.286 309.505 97.851 311.195 88.049Z" fill="url(#paint7_linear_278_4046)" fill-opacity="0.3"/>
<path d="M405.01 88.049C402.306 91.26 399.433 94.302 395.715 94.302H377.632C360.225 94.302 355.155 67.769 352.958 56.784C363.098 38.194 372.224 22.308 391.49 22.308C396.898 22.308 399.94 25.688 401.63 30.082C403.32 28.223 403.996 21.294 403.996 19.266C403.996 10.816 397.574 5.40799 388.955 5.40799C370.365 5.40799 355.324 27.209 346.029 46.813H345.522V0L322.2 13.858C325.58 15.548 330.143 17.069 330.143 21.125V117.286H345.522V79.43H346.029C349.24 88.894 359.211 117.286 378.646 117.286H387.265C400.616 117.286 403.32 97.851 405.01 88.049Z" fill="#C4C4C4"/>
<path d="M405.01 88.049C402.306 91.26 399.433 94.302 395.715 94.302H377.632C360.225 94.302 355.155 67.769 352.958 56.784C363.098 38.194 372.224 22.308 391.49 22.308C396.898 22.308 399.94 25.688 401.63 30.082C403.32 28.223 403.996 21.294 403.996 19.266C403.996 10.816 397.574 5.40799 388.955 5.40799C370.365 5.40799 355.324 27.209 346.029 46.813H345.522V0L322.2 13.858C325.58 15.548 330.143 17.069 330.143 21.125V117.286H345.522V79.43H346.029C349.24 88.894 359.211 117.286 378.646 117.286H387.265C400.616 117.286 403.32 97.851 405.01 88.049Z" fill="#FF8412"/>
<path d="M405.01 88.049C402.306 91.26 399.433 94.302 395.715 94.302H377.632C360.225 94.302 355.155 67.769 352.958 56.784C363.098 38.194 372.224 22.308 391.49 22.308C396.898 22.308 399.94 25.688 401.63 30.082C403.32 28.223 403.996 21.294 403.996 19.266C403.996 10.816 397.574 5.40799 388.955 5.40799C370.365 5.40799 355.324 27.209 346.029 46.813H345.522V0L322.2 13.858C325.58 15.548 330.143 17.069 330.143 21.125V117.286H345.522V79.43H346.029C349.24 88.894 359.211 117.286 378.646 117.286H387.265C400.616 117.286 403.32 97.851 405.01 88.049Z" fill="url(#paint8_linear_278_4046)"/>
<path d="M405.01 88.049C402.306 91.26 399.433 94.302 395.715 94.302H377.632C360.225 94.302 355.155 67.769 352.958 56.784C363.098 38.194 372.224 22.308 391.49 22.308C396.898 22.308 399.94 25.688 401.63 30.082C403.32 28.223 403.996 21.294 403.996 19.266C403.996 10.816 397.574 5.40799 388.955 5.40799C370.365 5.40799 355.324 27.209 346.029 46.813H345.522V0L322.2 13.858C325.58 15.548 330.143 17.069 330.143 21.125V117.286H345.522V79.43H346.029C349.24 88.894 359.211 117.286 378.646 117.286H387.265C400.616 117.286 403.32 97.851 405.01 88.049Z" fill="url(#paint9_linear_278_4046)" fill-opacity="0.3"/>
<path d="M502.304 88.049C499.6 91.26 496.727 94.302 493.009 94.302H484.559C480.672 94.302 478.475 90.415 478.475 86.528V0.168999L455.153 14.365C458.533 16.055 463.096 17.576 463.096 21.632V76.219C463.096 86.866 451.435 94.133 442.985 94.471V21.125L419.663 35.321C423.043 37.011 427.606 38.532 427.606 42.588V94.64C427.606 105.287 431.662 117.624 442.309 117.624C452.787 117.624 462.082 110.864 464.11 100.893H464.448C465.8 113.568 469.18 117.286 479.151 117.286H489.629C500.445 117.286 500.614 97.851 502.304 88.049Z" fill="#C4C4C4"/>
<path d="M502.304 88.049C499.6 91.26 496.727 94.302 493.009 94.302H484.559C480.672 94.302 478.475 90.415 478.475 86.528V0.168999L455.153 14.365C458.533 16.055 463.096 17.576 463.096 21.632V76.219C463.096 86.866 451.435 94.133 442.985 94.471V21.125L419.663 35.321C423.043 37.011 427.606 38.532 427.606 42.588V94.64C427.606 105.287 431.662 117.624 442.309 117.624C452.787 117.624 462.082 110.864 464.11 100.893H464.448C465.8 113.568 469.18 117.286 479.151 117.286H489.629C500.445 117.286 500.614 97.851 502.304 88.049Z" fill="#FF8412"/>
<path d="M502.304 88.049C499.6 91.26 496.727 94.302 493.009 94.302H484.559C480.672 94.302 478.475 90.415 478.475 86.528V0.168999L455.153 14.365C458.533 16.055 463.096 17.576 463.096 21.632V76.219C463.096 86.866 451.435 94.133 442.985 94.471V21.125L419.663 35.321C423.043 37.011 427.606 38.532 427.606 42.588V94.64C427.606 105.287 431.662 117.624 442.309 117.624C452.787 117.624 462.082 110.864 464.11 100.893H464.448C465.8 113.568 469.18 117.286 479.151 117.286H489.629C500.445 117.286 500.614 97.851 502.304 88.049Z" fill="url(#paint10_linear_278_4046)"/>
<path d="M502.304 88.049C499.6 91.26 496.727 94.302 493.009 94.302H484.559C480.672 94.302 478.475 90.415 478.475 86.528V0.168999L455.153 14.365C458.533 16.055 463.096 17.576 463.096 21.632V76.219C463.096 86.866 451.435 94.133 442.985 94.471V21.125L419.663 35.321C423.043 37.011 427.606 38.532 427.606 42.588V94.64C427.606 105.287 431.662 117.624 442.309 117.624C452.787 117.624 462.082 110.864 464.11 100.893H464.448C465.8 113.568 469.18 117.286 479.151 117.286H489.629C500.445 117.286 500.614 97.851 502.304 88.049Z" fill="url(#paint11_linear_278_4046)" fill-opacity="0.3"/>
<path d="M571.264 88.049C568.56 91.26 565.687 94.302 561.969 94.302H550.984C536.957 94.302 529.521 87.035 529.521 65.234C529.521 44.109 538.14 23.66 546.252 23.66C551.998 23.66 555.547 37.856 556.392 47.32L568.898 29.406C568.898 10.478 562.476 2.028 553.35 2.028C537.295 2.028 514.142 25.688 514.142 65.234C514.142 97.006 528.676 117.286 544.393 117.286H553.519C561.8 117.286 569.574 97.851 571.264 88.049Z" fill="#C4C4C4"/>
<path d="M571.264 88.049C568.56 91.26 565.687 94.302 561.969 94.302H550.984C536.957 94.302 529.521 87.035 529.521 65.234C529.521 44.109 538.14 23.66 546.252 23.66C551.998 23.66 555.547 37.856 556.392 47.32L568.898 29.406C568.898 10.478 562.476 2.028 553.35 2.028C537.295 2.028 514.142 25.688 514.142 65.234C514.142 97.006 528.676 117.286 544.393 117.286H553.519C561.8 117.286 569.574 97.851 571.264 88.049Z" fill="#FF8412"/>
<path d="M571.264 88.049C568.56 91.26 565.687 94.302 561.969 94.302H550.984C536.957 94.302 529.521 87.035 529.521 65.234C529.521 44.109 538.14 23.66 546.252 23.66C551.998 23.66 555.547 37.856 556.392 47.32L568.898 29.406C568.898 10.478 562.476 2.028 553.35 2.028C537.295 2.028 514.142 25.688 514.142 65.234C514.142 97.006 528.676 117.286 544.393 117.286H553.519C561.8 117.286 569.574 97.851 571.264 88.049Z" fill="url(#paint12_linear_278_4046)"/>
<path d="M571.264 88.049C568.56 91.26 565.687 94.302 561.969 94.302H550.984C536.957 94.302 529.521 87.035 529.521 65.234C529.521 44.109 538.14 23.66 546.252 23.66C551.998 23.66 555.547 37.856 556.392 47.32L568.898 29.406C568.898 10.478 562.476 2.028 553.35 2.028C537.295 2.028 514.142 25.688 514.142 65.234C514.142 97.006 528.676 117.286 544.393 117.286H553.519C561.8 117.286 569.574 97.851 571.264 88.049Z" fill="url(#paint13_linear_278_4046)" fill-opacity="0.3"/>
<path d="M683.696 41.743C683.696 22.139 678.457 10.14 665.444 10.14C657.163 10.14 650.234 15.379 646.516 21.125C644.488 7.774 639.587 0 629.109 0C619.476 0 611.533 6.92899 608.829 13.689V0.168999L585.507 13.858C588.887 15.548 593.45 17.069 593.45 21.125V117.286H608.829V31.096C611.364 24.505 615.251 21.801 619.138 21.801C625.898 21.801 629.616 25.181 629.616 37.687C629.616 51.545 630.292 100.386 621.166 117.286H624.715C639.08 103.09 644.32 66.248 646.854 37.687C649.221 33.631 652.431 31.941 655.473 31.941C662.233 31.941 665.951 35.321 665.951 47.827C665.951 72.163 658.685 100.893 646.854 117.286H650.403C666.458 101.4 683.696 72.163 683.696 41.743Z" fill="#C4C4C4"/>
<path d="M683.696 41.743C683.696 22.139 678.457 10.14 665.444 10.14C657.163 10.14 650.234 15.379 646.516 21.125C644.488 7.774 639.587 0 629.109 0C619.476 0 611.533 6.92899 608.829 13.689V0.168999L585.507 13.858C588.887 15.548 593.45 17.069 593.45 21.125V117.286H608.829V31.096C611.364 24.505 615.251 21.801 619.138 21.801C625.898 21.801 629.616 25.181 629.616 37.687C629.616 51.545 630.292 100.386 621.166 117.286H624.715C639.08 103.09 644.32 66.248 646.854 37.687C649.221 33.631 652.431 31.941 655.473 31.941C662.233 31.941 665.951 35.321 665.951 47.827C665.951 72.163 658.685 100.893 646.854 117.286H650.403C666.458 101.4 683.696 72.163 683.696 41.743Z" fill="#FF8412"/>
<path d="M683.696 41.743C683.696 22.139 678.457 10.14 665.444 10.14C657.163 10.14 650.234 15.379 646.516 21.125C644.488 7.774 639.587 0 629.109 0C619.476 0 611.533 6.92899 608.829 13.689V0.168999L585.507 13.858C588.887 15.548 593.45 17.069 593.45 21.125V117.286H608.829V31.096C611.364 24.505 615.251 21.801 619.138 21.801C625.898 21.801 629.616 25.181 629.616 37.687C629.616 51.545 630.292 100.386 621.166 117.286H624.715C639.08 103.09 644.32 66.248 646.854 37.687C649.221 33.631 652.431 31.941 655.473 31.941C662.233 31.941 665.951 35.321 665.951 47.827C665.951 72.163 658.685 100.893 646.854 117.286H650.403C666.458 101.4 683.696 72.163 683.696 41.743Z" fill="url(#paint14_linear_278_4046)"/>
<path d="M683.696 41.743C683.696 22.139 678.457 10.14 665.444 10.14C657.163 10.14 650.234 15.379 646.516 21.125C644.488 7.774 639.587 0 629.109 0C619.476 0 611.533 6.92899 608.829 13.689V0.168999L585.507 13.858C588.887 15.548 593.45 17.069 593.45 21.125V117.286H608.829V31.096C611.364 24.505 615.251 21.801 619.138 21.801C625.898 21.801 629.616 25.181 629.616 37.687C629.616 51.545 630.292 100.386 621.166 117.286H624.715C639.08 103.09 644.32 66.248 646.854 37.687C649.221 33.631 652.431 31.941 655.473 31.941C662.233 31.941 665.951 35.321 665.951 47.827C665.951 72.163 658.685 100.893 646.854 117.286H650.403C666.458 101.4 683.696 72.163 683.696 41.743Z" fill="url(#paint15_linear_278_4046)" fill-opacity="0.3"/>
<path d="M753.694 117.286L741.864 0.506996L712.289 10.14C720.232 13.013 727.668 14.872 725.64 21.294L704.346 86.697C702.994 90.922 700.29 94.471 695.896 94.471H690.826C687.108 94.471 684.235 91.429 681.531 88.218C683.221 98.02 683.39 117.286 694.206 117.286H697.586C700.797 117.286 703.163 115.596 704.346 112.554L715.669 81.796L723.105 89.401L734.09 81.458L738.315 117.286H753.694ZM733.583 77.571L724.964 70.135L716.683 77.233L729.696 40.053L733.583 77.571Z" fill="#C4C4C4"/>
<path d="M753.694 117.286L741.864 0.506996L712.289 10.14C720.232 13.013 727.668 14.872 725.64 21.294L704.346 86.697C702.994 90.922 700.29 94.471 695.896 94.471H690.826C687.108 94.471 684.235 91.429 681.531 88.218C683.221 98.02 683.39 117.286 694.206 117.286H697.586C700.797 117.286 703.163 115.596 704.346 112.554L715.669 81.796L723.105 89.401L734.09 81.458L738.315 117.286H753.694ZM733.583 77.571L724.964 70.135L716.683 77.233L729.696 40.053L733.583 77.571Z" fill="#FF8412"/>
<path d="M753.694 117.286L741.864 0.506996L712.289 10.14C720.232 13.013 727.668 14.872 725.64 21.294L704.346 86.697C702.994 90.922 700.29 94.471 695.896 94.471H690.826C687.108 94.471 684.235 91.429 681.531 88.218C683.221 98.02 683.39 117.286 694.206 117.286H697.586C700.797 117.286 703.163 115.596 704.346 112.554L715.669 81.796L723.105 89.401L734.09 81.458L738.315 117.286H753.694ZM733.583 77.571L724.964 70.135L716.683 77.233L729.696 40.053L733.583 77.571Z" fill="url(#paint16_linear_278_4046)"/>
<path d="M753.694 117.286L741.864 0.506996L712.289 10.14C720.232 13.013 727.668 14.872 725.64 21.294L704.346 86.697C702.994 90.922 700.29 94.471 695.896 94.471H690.826C687.108 94.471 684.235 91.429 681.531 88.218C683.221 98.02 683.39 117.286 694.206 117.286H697.586C700.797 117.286 703.163 115.596 704.346 112.554L715.669 81.796L723.105 89.401L734.09 81.458L738.315 117.286H753.694ZM733.583 77.571L724.964 70.135L716.683 77.233L729.696 40.053L733.583 77.571Z" fill="url(#paint17_linear_278_4046)" fill-opacity="0.3"/>
<path d="M859.273 88.049C856.569 91.26 853.696 94.302 849.978 94.302H838.486C834.937 94.302 831.388 90.584 831.388 84.838V0L808.066 13.858C811.446 15.548 816.009 17.069 816.009 21.125V56.446L803.841 48.334L791.335 56.615V0L768.013 13.858C771.393 15.548 775.956 17.069 775.956 21.125V117.286H791.335V58.643L803.841 67.093L816.009 58.812V95.992C816.009 106.977 821.079 117.286 835.106 117.286H841.528C854.879 117.286 857.583 97.851 859.273 88.049Z" fill="#C4C4C4"/>
<path d="M859.273 88.049C856.569 91.26 853.696 94.302 849.978 94.302H838.486C834.937 94.302 831.388 90.584 831.388 84.838V0L808.066 13.858C811.446 15.548 816.009 17.069 816.009 21.125V56.446L803.841 48.334L791.335 56.615V0L768.013 13.858C771.393 15.548 775.956 17.069 775.956 21.125V117.286H791.335V58.643L803.841 67.093L816.009 58.812V95.992C816.009 106.977 821.079 117.286 835.106 117.286H841.528C854.879 117.286 857.583 97.851 859.273 88.049Z" fill="#FF8412"/>
<path d="M859.273 88.049C856.569 91.26 853.696 94.302 849.978 94.302H838.486C834.937 94.302 831.388 90.584 831.388 84.838V0L808.066 13.858C811.446 15.548 816.009 17.069 816.009 21.125V56.446L803.841 48.334L791.335 56.615V0L768.013 13.858C771.393 15.548 775.956 17.069 775.956 21.125V117.286H791.335V58.643L803.841 67.093L816.009 58.812V95.992C816.009 106.977 821.079 117.286 835.106 117.286H841.528C854.879 117.286 857.583 97.851 859.273 88.049Z" fill="url(#paint18_linear_278_4046)"/>
<path d="M859.273 88.049C856.569 91.26 853.696 94.302 849.978 94.302H838.486C834.937 94.302 831.388 90.584 831.388 84.838V0L808.066 13.858C811.446 15.548 816.009 17.069 816.009 21.125V56.446L803.841 48.334L791.335 56.615V0L768.013 13.858C771.393 15.548 775.956 17.069 775.956 21.125V117.286H791.335V58.643L803.841 67.093L816.009 58.812V95.992C816.009 106.977 821.079 117.286 835.106 117.286H841.528C854.879 117.286 857.583 97.851 859.273 88.049Z" fill="url(#paint19_linear_278_4046)" fill-opacity="0.3"/>
<defs>
<linearGradient id="paint0_linear_278_4046" x1="429.78" y1="0" x2="429.78" y2="148.551" gradientUnits="userSpaceOnUse">
<stop stop-color="white"/>
<stop offset="1" stop-color="white" stop-opacity="0"/>
</linearGradient>
<linearGradient id="paint1_linear_278_4046" x1="429.78" y1="0" x2="429.78" y2="148.551" gradientUnits="userSpaceOnUse">
<stop stop-color="#25284C" stop-opacity="0"/>
<stop offset="0.546875" stop-color="#283347" stop-opacity="0"/>
<stop offset="0.901042" stop-color="#283347" stop-opacity="0.79"/>
</linearGradient>
<linearGradient id="paint2_linear_278_4046" x1="429.78" y1="0" x2="429.78" y2="148.551" gradientUnits="userSpaceOnUse">
<stop stop-color="white"/>
<stop offset="1" stop-color="white" stop-opacity="0"/>
</linearGradient>
<linearGradient id="paint3_linear_278_4046" x1="429.78" y1="0" x2="429.78" y2="148.551" gradientUnits="userSpaceOnUse">
<stop stop-color="#25284C" stop-opacity="0"/>
<stop offset="0.546875" stop-color="#283347" stop-opacity="0"/>
<stop offset="0.901042" stop-color="#283347" stop-opacity="0.79"/>
</linearGradient>
<linearGradient id="paint4_linear_278_4046" x1="429.78" y1="0" x2="429.78" y2="148.551" gradientUnits="userSpaceOnUse">
<stop stop-color="white"/>
<stop offset="1" stop-color="white" stop-opacity="0"/>
</linearGradient>
<linearGradient id="paint5_linear_278_4046" x1="429.78" y1="0" x2="429.78" y2="148.551" gradientUnits="userSpaceOnUse">
<stop stop-color="#25284C" stop-opacity="0"/>
<stop offset="0.546875" stop-color="#283347" stop-opacity="0"/>
<stop offset="0.901042" stop-color="#283347" stop-opacity="0.79"/>
</linearGradient>
<linearGradient id="paint6_linear_278_4046" x1="429.78" y1="0" x2="429.78" y2="148.551" gradientUnits="userSpaceOnUse">
<stop stop-color="white"/>
<stop offset="1" stop-color="white" stop-opacity="0"/>
</linearGradient>
<linearGradient id="paint7_linear_278_4046" x1="429.78" y1="0" x2="429.78" y2="148.551" gradientUnits="userSpaceOnUse">
<stop stop-color="#25284C" stop-opacity="0"/>
<stop offset="0.546875" stop-color="#283347" stop-opacity="0"/>
<stop offset="0.901042" stop-color="#283347" stop-opacity="0.79"/>
</linearGradient>
<linearGradient id="paint8_linear_278_4046" x1="429.78" y1="0" x2="429.78" y2="148.551" gradientUnits="userSpaceOnUse">
<stop stop-color="white"/>
<stop offset="1" stop-color="white" stop-opacity="0"/>
</linearGradient>
<linearGradient id="paint9_linear_278_4046" x1="429.78" y1="0" x2="429.78" y2="148.551" gradientUnits="userSpaceOnUse">
<stop stop-color="#25284C" stop-opacity="0"/>
<stop offset="0.546875" stop-color="#283347" stop-opacity="0"/>
<stop offset="0.901042" stop-color="#283347" stop-opacity="0.79"/>
</linearGradient>
<linearGradient id="paint10_linear_278_4046" x1="429.78" y1="0" x2="429.78" y2="148.551" gradientUnits="userSpaceOnUse">
<stop stop-color="white"/>
<stop offset="1" stop-color="white" stop-opacity="0"/>
</linearGradient>
<linearGradient id="paint11_linear_278_4046" x1="429.78" y1="0" x2="429.78" y2="148.551" gradientUnits="userSpaceOnUse">
<stop stop-color="#25284C" stop-opacity="0"/>
<stop offset="0.546875" stop-color="#283347" stop-opacity="0"/>
<stop offset="0.901042" stop-color="#283347" stop-opacity="0.79"/>
</linearGradient>
<linearGradient id="paint12_linear_278_4046" x1="429.78" y1="0" x2="429.78" y2="148.551" gradientUnits="userSpaceOnUse">
<stop stop-color="white"/>
<stop offset="1" stop-color="white" stop-opacity="0"/>
</linearGradient>
<linearGradient id="paint13_linear_278_4046" x1="429.78" y1="0" x2="429.78" y2="148.551" gradientUnits="userSpaceOnUse">
<stop stop-color="#25284C" stop-opacity="0"/>
<stop offset="0.546875" stop-color="#283347" stop-opacity="0"/>
<stop offset="0.901042" stop-color="#283347" stop-opacity="0.79"/>
</linearGradient>
<linearGradient id="paint14_linear_278_4046" x1="429.78" y1="0" x2="429.78" y2="148.551" gradientUnits="userSpaceOnUse">
<stop stop-color="white"/>
<stop offset="1" stop-color="white" stop-opacity="0"/>
</linearGradient>
<linearGradient id="paint15_linear_278_4046" x1="429.78" y1="0" x2="429.78" y2="148.551" gradientUnits="userSpaceOnUse">
<stop stop-color="#25284C" stop-opacity="0"/>
<stop offset="0.546875" stop-color="#283347" stop-opacity="0"/>
<stop offset="0.901042" stop-color="#283347" stop-opacity="0.79"/>
</linearGradient>
<linearGradient id="paint16_linear_278_4046" x1="429.78" y1="0" x2="429.78" y2="148.551" gradientUnits="userSpaceOnUse">
<stop stop-color="white"/>
<stop offset="1" stop-color="white" stop-opacity="0"/>
</linearGradient>
<linearGradient id="paint17_linear_278_4046" x1="429.78" y1="0" x2="429.78" y2="148.551" gradientUnits="userSpaceOnUse">
<stop stop-color="#25284C" stop-opacity="0"/>
<stop offset="0.546875" stop-color="#283347" stop-opacity="0"/>
<stop offset="0.901042" stop-color="#283347" stop-opacity="0.79"/>
</linearGradient>
<linearGradient id="paint18_linear_278_4046" x1="429.78" y1="0" x2="429.78" y2="148.551" gradientUnits="userSpaceOnUse">
<stop stop-color="white"/>
<stop offset="1" stop-color="white" stop-opacity="0"/>
</linearGradient>
<linearGradient id="paint19_linear_278_4046" x1="429.78" y1="0" x2="429.78" y2="148.551" gradientUnits="userSpaceOnUse">
<stop stop-color="#25284C" stop-opacity="0"/>
<stop offset="0.546875" stop-color="#283347" stop-opacity="0"/>
<stop offset="0.901042" stop-color="#283347" stop-opacity="0.79"/>
</linearGradient>
</defs>
</svg>
